<svg width="1903" height="1894" viewBox="0 0 1903 1894" fill="none" xmlns="http://www.w3.org/2000/svg">
<path d="M1903 1849.67L0 1894V0H1903V1849.67Z" fill="#943700"/>
<path d="M1672.22 306.58L294.24 321.49C288.08 321.49 283.13 326.4 283.13 332.49V517.35C283.13 523.43 288.08 528.35 294.24 528.35C295.17 528.35 296.06 528.2 296.93 527.98L1670.72 557.42L1670.88 557.28C1671.32 557.34 1671.76 557.42 1672.22 557.42C1678.35 557.42 1683.31 552.5 1683.31 546.43V317.57C1683.31 311.52 1678.35 306.58 1672.22 306.58Z" fill="#00C4B3"/>
<path d="M1372.4 538.33L1372.29 538.19L1371.63 538.18C1370.98 538.04 1370.38 537.79 1369.69 537.79C1369.14 537.79 1368.67 538.01 1368.15 538.1L262.67 513.26L262.44 513.46C262.08 513.42 261.78 513.26 261.41 513.26C256.25 513.26 252.06 517.42 252.06 522.53V729.71C252.06 734.83 256.24 738.99 261.41 738.99L1369.69 712.24C1374.87 712.24 1379.06 708.09 1379.06 702.96V547.07C1379.06 542.9 1376.23 539.5 1372.4 538.33Z" fill="#8D7E35"/>
<path d="M817.26 145.87C816.42 145.87 815.61 145.97 814.83 146.14L253.59 123.34L253.43 123.48C252.98 123.43 252.53 123.34 252.07 123.34C245.78 123.34 240.69 128.39 240.69 134.6V339.95C240.69 346.18 245.78 351.21 252.07 351.21L817.27 328.69C823.57 328.69 828.65 323.64 828.65 317.41V157.16C828.65 150.92 823.56 145.87 817.26 145.87Z" fill="#FF5F00"/>
<path d="M427.17 250.2C429.75 254.42 431.04 259.48 431.04 265.39C431.04 275.3 428.09 283.01 422.18 288.49C416.28 293.98 408.05 296.72 397.5 296.72H353.67V187.54H395.76C406.41 187.54 414.72 190.18 420.68 195.45C426.63 200.73 429.62 208.22 429.62 217.92C429.62 222.78 428.41 227.23 425.98 231.29C423.55 235.36 420.18 238.44 415.85 240.55C420.82 242.76 424.59 245.98 427.17 250.2ZM374.41 205.58V232.16H394.19C398.94 232.16 402.55 231.03 405.03 228.75C407.5 226.48 408.75 223.29 408.75 219.18C408.75 214.75 407.51 211.38 405.03 209.05C402.55 206.73 398.94 205.57 394.19 205.57H374.41V205.58ZM406.61 274.8C409.08 272.22 410.33 268.6 410.33 263.96C410.33 259.63 409.09 256.26 406.61 253.83C404.13 251.41 400.41 250.19 395.46 250.19H374.41V278.67H395.46C400.41 278.67 404.13 277.39 406.61 274.8Z" fill="white"/>
<path d="M454.78 254.47V229.47C454.78 200.46 468.01 185.96 494.49 185.96C506.62 185.96 516.22 189.36 523.29 196.17C530.36 202.97 533.89 214.07 533.89 229.47V254.47C533.89 269.87 530.27 280.97 523.05 287.77C515.82 294.57 506.09 297.97 493.86 297.97C467.81 297.98 454.78 283.48 454.78 254.47ZM508.57 273.38C511.63 269.32 513.16 262.91 513.16 254.16V230.58C513.16 221.3 511.63 214.58 508.57 210.41C505.51 206.24 500.82 204.16 494.49 204.16C487.85 204.16 483.05 206.2 480.09 210.26C477.13 214.32 475.66 221.1 475.66 230.59V254.17C475.66 263.14 477.14 269.59 480.09 273.55C483.05 277.5 487.84 279.48 494.49 279.48C500.82 279.47 505.51 277.44 508.57 273.38Z" fill="white"/>
<path d="M557.46 187.54H578.19V278.67H625.97V296.71H557.46V187.54Z" fill="white"/>
<path d="M647 187.54H685.45C697.58 187.54 707.15 190.92 714.17 197.67C721.19 204.42 724.69 215.49 724.69 230.89V253.2C724.69 268.6 721.1 279.7 713.93 286.5C706.76 293.31 697.05 296.71 684.82 296.71H647V187.54ZM685.29 278.67C691.52 278.67 696.18 276.62 699.29 272.5C702.4 268.39 703.96 261.9 703.96 253.04V232C703.96 222.72 702.43 215.99 699.37 211.82C696.31 207.65 691.62 205.57 685.29 205.57H667.73V278.66H685.29V278.67Z" fill="white"/>
<path d="M372.74 484.68C366.78 481.57 362.12 477.19 358.74 471.55C355.36 465.9 353.68 459.5 353.68 452.33V379.23H374.41V451.7C374.41 457.93 376.05 462.75 379.32 466.17C382.58 469.6 387.07 471.31 392.77 471.31C398.47 471.31 402.97 469.6 406.29 466.17C409.62 462.74 411.28 457.92 411.28 451.7V379.23H432.17V452.33C432.17 459.5 430.46 465.91 427.03 471.55C423.6 477.2 418.9 481.57 412.95 484.68C406.99 487.79 400.26 489.34 392.78 489.34C385.38 489.35 378.7 487.8 372.74 484.68Z" fill="white"/>
<path d="M540.37 379.23V488.4H519.64L479.46 420.21V488.4H458.73V379.23H479.46L519.64 447.58V379.23H540.37Z" fill="white"/>
<path d="M624.22 467.2H586.73L580.08 488.4H558.25L597.01 379.23H613.94L652.87 488.4H630.88L624.22 467.2ZM618.69 449.95L605.4 408.02L592.27 449.95H618.69Z" fill="white"/>
<path d="M737.74 388.41C744.12 394.53 747.31 402.91 747.31 413.57C747.31 423.7 744.12 431.79 737.74 437.86C731.36 443.92 722.63 446.96 711.55 446.96H691.46V488.41H670.73V379.23H711.55C722.63 379.23 731.36 382.29 737.74 388.41ZM722.31 424.8C725.16 422.17 726.59 418.42 726.59 413.57C726.59 408.3 725.19 404.26 722.39 401.46C719.59 398.67 715.67 397.27 710.61 397.27H691.47V428.75H710.61C715.56 428.75 719.46 427.44 722.31 424.8Z" fill="white"/>
<path d="M765.35 446.16V421.16C765.35 392.15 778.58 377.65 805.06 377.65C817.19 377.65 826.79 381.05 833.86 387.86C840.93 394.66 844.46 405.76 844.46 421.16V446.16C844.46 461.56 840.84 472.66 833.62 479.46C826.39 486.26 816.66 489.66 804.43 489.66C778.37 489.66 765.35 475.17 765.35 446.16ZM819.14 465.07C822.2 461.01 823.73 454.6 823.73 445.85V422.27C823.73 412.99 822.2 406.27 819.14 402.1C816.08 397.93 811.39 395.85 805.06 395.85C798.42 395.85 793.62 397.89 790.66 401.95C787.7 406.01 786.23 412.79 786.23 422.28V445.86C786.23 454.83 787.71 461.28 790.66 465.24C793.62 469.19 798.41 471.17 805.06 471.17C811.39 471.16 816.08 469.13 819.14 465.07Z" fill="white"/>
<path d="M868.03 379.23H888.76V470.36H936.54V488.4H868.03V379.23Z" fill="white"/>
<path d="M950.14 446.16V421.16C950.14 392.15 963.37 377.65 989.85 377.65C1001.98 377.65 1011.58 381.05 1018.65 387.86C1025.72 394.66 1029.25 405.76 1029.25 421.16V446.16C1029.25 461.56 1025.64 472.66 1018.41 479.46C1011.18 486.26 1001.45 489.66 989.22 489.66C963.17 489.66 950.14 475.17 950.14 446.16ZM1003.93 465.07C1006.99 461.01 1008.52 454.6 1008.52 445.85V422.27C1008.52 412.99 1006.99 406.27 1003.93 402.1C1000.87 397.93 996.18 395.85 989.85 395.85C983.21 395.85 978.41 397.89 975.45 401.95C972.49 406.01 971.02 412.79 971.02 422.28V445.86C971.02 454.83 972.5 461.28 975.45 465.24C978.41 469.19 983.2 471.17 989.85 471.17C996.18 471.16 1000.87 469.13 1003.93 465.07Z" fill="white"/>
<path d="M1052.98 446.16V421.16C1052.98 392.15 1066.32 377.65 1093 377.65C1104.92 377.65 1114.41 380.79 1121.48 387.06C1128.55 393.34 1132.08 402.02 1132.08 413.09V414.19H1111.35V413.09C1111.35 408.13 1109.74 404.02 1106.52 400.75C1103.31 397.49 1098.74 395.84 1092.83 395.84C1086.19 395.84 1081.36 397.9 1078.36 402.02C1075.35 406.13 1073.85 412.88 1073.85 422.27V445.85C1073.85 454.82 1075.46 461.27 1078.68 465.23C1081.9 469.18 1086.88 471.16 1093.64 471.16C1099.97 471.16 1104.58 469.52 1107.48 466.25C1110.38 462.98 1111.83 458.02 1111.83 451.38V446.16H1092.53V429.07H1132.09V447.74C1132.09 475.69 1118.96 489.67 1092.69 489.67C1066.21 489.66 1052.98 475.17 1052.98 446.16Z" fill="white"/>
<path d="M1176.39 397.27V424.33H1217.84V442.36H1176.39V470.36H1224.96V488.4H1155.66V379.23H1224.96V397.27H1176.39Z" fill="white"/>
<path d="M1315.93 397.27H1288.09V488.4H1267.2V397.27H1239.36V379.23H1315.94V397.27H1315.93Z" fill="white"/>
<path d="M1335.07 379.23H1355.79V488.4H1335.07V379.23Z" fill="white"/>
<path d="M1381.9 446.16V421.16C1381.9 392.15 1395.24 377.65 1421.92 377.65C1433.84 377.65 1443.33 380.81 1450.4 387.14C1457.47 393.47 1461 402.38 1461 413.88V414.98H1440.27V414.03C1440.27 408.44 1438.66 404.01 1435.44 400.74C1432.23 397.48 1427.66 395.83 1421.75 395.83C1415.11 395.83 1410.28 397.89 1407.28 402.01C1404.27 406.12 1402.77 412.87 1402.77 422.26V445.84C1402.77 454.7 1404.33 461.13 1407.44 465.14C1410.55 469.15 1415.43 471.15 1422.07 471.15C1427.98 471.15 1432.48 469.56 1435.6 466.4C1438.71 463.24 1440.27 458.91 1440.27 453.42V452.16H1460.68V453.26C1460.68 464.97 1457.2 473.96 1450.24 480.24C1443.28 486.52 1433.73 489.65 1421.6 489.65C1395.14 489.66 1381.9 475.17 1381.9 446.16Z" fill="white"/>
<path d="M410.95 658.88H373.46L366.81 680.08H344.98L383.74 570.91H400.67L439.6 680.08H417.6L410.95 658.88ZM405.42 641.64L392.13 599.71L379 641.64H405.42Z" fill="white"/>
<path d="M478.19 588.95V616.95H519.8V634.99H478.19V680.08H457.46V570.92H526.76V588.96L478.19 588.95Z" fill="white"/>
<path d="M583.41 635.79H567.9V680.09H547.17V570.92H588.62C599.28 570.92 607.76 573.85 614.1 579.71C620.43 585.56 623.59 593.5 623.59 603.52C623.59 610.69 621.93 616.76 618.6 621.72C615.28 626.68 610.51 630.32 604.28 632.64L628.01 680.1H604.12L583.41 635.79ZM567.9 618.54H587.52C592.37 618.54 596.14 617.25 598.83 614.66C601.52 612.08 602.87 608.36 602.87 603.51C602.87 599.08 601.49 595.55 598.75 592.91C596.01 590.28 592.27 588.96 587.52 588.96H567.9V618.54Z" fill="white"/>
<path d="M649.39 570.92H670.11V680.09H649.39V570.92Z" fill="white"/>
<path d="M696.21 637.84V612.84C696.21 583.83 709.55 569.33 736.23 569.33C748.15 569.33 757.64 572.49 764.71 578.82C771.78 585.15 775.31 594.06 775.31 605.56V606.66H754.58V605.71C754.58 600.12 752.97 595.69 749.75 592.42C746.54 589.16 741.97 587.51 736.06 587.51C729.42 587.51 724.59 589.57 721.59 593.69C718.58 597.8 717.08 604.55 717.08 613.94V637.52C717.08 646.38 718.64 652.81 721.75 656.82C724.86 660.83 729.74 662.83 736.38 662.83C742.29 662.83 746.79 661.24 749.91 658.08C753.02 654.92 754.58 650.59 754.58 645.1V643.84H775V644.94C775 656.65 771.52 665.64 764.56 671.92C757.6 678.2 748.05 681.33 735.92 681.33C709.44 681.35 696.21 666.85 696.21 637.84Z" fill="white"/>
<path d="M853 658.88H815.51L808.86 680.08H787.03L825.79 570.91H842.72L881.65 680.08H859.66L853 658.88ZM847.46 641.64L834.17 599.71L821.04 641.64H847.46Z" fill="white"/>
<path d="M897.3 616.33H940.8V634.52H897.3V616.33Z" fill="white"/>
<path d="M965.17 570.92H985.9V662.05H1033.68V680.09H965.17V570.92Z" fill="white"/>
<path d="M1075.44 588.95V616.01H1116.89V634.04H1075.44V662.04H1124.01V680.08H1054.71V570.92H1124.01V588.96L1075.44 588.95Z" fill="white"/>
<path d="M1146.79 570.92H1185.24C1197.37 570.92 1206.94 574.3 1213.96 581.05C1220.98 587.8 1224.48 598.87 1224.48 614.27V636.58C1224.48 651.98 1220.89 663.08 1213.72 669.88C1206.55 676.69 1196.84 680.09 1184.61 680.09H1146.79V570.92ZM1185.08 662.05C1191.31 662.05 1195.97 660 1199.08 655.88C1202.19 651.77 1203.75 645.28 1203.75 636.42V615.38C1203.75 606.1 1202.22 599.37 1199.16 595.2C1196.1 591.03 1191.41 588.95 1185.08 588.95H1167.52V662.04H1185.08V662.05Z" fill="white"/>
</svg>
