<svg width="718" height="106" viewBox="0 0 718 106" fill="none" xmlns="http://www.w3.org/2000/svg">
<path d="M718 6.77954V94.2L0.25 105.63V0.399658L718 6.77954Z" fill="#701012"/>
<path d="M69.6747 69.3796V31.0233H83.0845C85.7565 31.0233 87.9602 31.4852 89.6957 32.4092C91.4312 33.3207 92.7235 34.5505 93.5726 36.0987C94.4216 37.6345 94.8461 39.3388 94.8461 41.2117C94.8461 42.8598 94.5527 44.2208 93.9659 45.2945C93.3915 46.3683 92.6299 47.2174 91.681 47.8416C90.7445 48.4659 89.7269 48.9279 88.6282 49.2276V49.6021C89.8018 49.6771 90.9818 50.0891 92.1679 50.8382C93.3541 51.5874 94.3467 52.6612 95.1458 54.0596C95.9449 55.458 96.3444 57.1685 96.3444 59.1912C96.3444 61.114 95.9074 62.8433 95.0334 64.3791C94.1594 65.9148 92.7797 67.1322 90.8944 68.0312C89.009 68.9301 86.5555 69.3796 83.534 69.3796H69.6747ZM74.3195 65.2593H83.534C86.568 65.2593 88.7218 64.6725 89.9954 63.4988C91.2814 62.3127 91.9244 60.8768 91.9244 59.1912C91.9244 57.8927 91.5936 56.6941 90.9318 55.5953C90.2701 54.4841 89.3274 53.5976 88.1038 52.9358C86.8802 52.2616 85.4318 51.9245 83.7587 51.9245H74.3195V65.2593ZM74.3195 47.8791H82.9347C84.3331 47.8791 85.5941 47.6044 86.7179 47.055C87.8541 46.5057 88.753 45.7315 89.4148 44.7327C90.089 43.7338 90.4261 42.5601 90.4261 41.2117C90.4261 39.5261 89.8393 38.0965 88.6656 36.9228C87.492 35.7367 85.6316 35.1436 83.0845 35.1436H74.3195V47.8791ZM103.976 69.3796V31.0233H127.125V35.1436H108.621V48.1038H125.926V52.2242H108.621V65.2593H127.425V69.3796H103.976ZM166.362 43.0096H161.717C161.442 41.6737 160.962 40.5 160.275 39.4886C159.601 38.4773 158.777 37.6283 157.803 36.9415C156.841 36.2423 155.774 35.7179 154.6 35.3683C153.426 35.0187 152.203 34.8439 150.929 34.8439C148.607 34.8439 146.503 35.4308 144.618 36.6044C142.745 37.7781 141.253 39.5074 140.141 41.7923C139.043 44.0772 138.493 46.8802 138.493 50.2015C138.493 53.5227 139.043 56.3257 140.141 58.6106C141.253 60.8955 142.745 62.6248 144.618 63.7985C146.503 64.9722 148.607 65.559 150.929 65.559C152.203 65.559 153.426 65.3842 154.6 65.0346C155.774 64.685 156.841 64.1668 157.803 63.4801C158.777 62.7809 159.601 61.9256 160.275 60.9143C160.962 59.8904 161.442 58.7168 161.717 57.3933H166.362C166.012 59.3535 165.375 61.1078 164.451 62.656C163.527 64.2043 162.379 65.5215 161.005 66.6078C159.632 67.6816 158.09 68.4994 156.379 69.0613C154.681 69.6231 152.864 69.904 150.929 69.904C147.658 69.904 144.749 69.105 142.202 67.5068C139.655 65.9086 137.651 63.6362 136.19 60.6895C134.729 57.7429 133.998 54.2469 133.998 50.2015C133.998 46.1561 134.729 42.66 136.19 39.7134C137.651 36.7667 139.655 34.4943 142.202 32.8961C144.749 31.298 147.658 30.4989 150.929 30.4989C152.864 30.4989 154.681 30.7798 156.379 31.3417C158.09 31.9035 159.632 32.7276 161.005 33.8138C162.379 34.8876 163.527 36.1986 164.451 37.7469C165.375 39.2826 166.012 41.0369 166.362 43.0096ZM206.23 50.2015C206.23 54.2469 205.5 57.7429 204.039 60.6895C202.578 63.6362 200.574 65.9086 198.027 67.5068C195.48 69.105 192.571 69.904 189.3 69.904C186.028 69.904 183.119 69.105 180.572 67.5068C178.025 65.9086 176.021 63.6362 174.56 60.6895C173.099 57.7429 172.369 54.2469 172.369 50.2015C172.369 46.1561 173.099 42.66 174.56 39.7134C176.021 36.7667 178.025 34.4943 180.572 32.8961C183.119 31.298 186.028 30.4989 189.3 30.4989C192.571 30.4989 195.48 31.298 198.027 32.8961C200.574 34.4943 202.578 36.7667 204.039 39.7134C205.5 42.66 206.23 46.1561 206.23 50.2015ZM201.735 50.2015C201.735 46.8802 201.18 44.0772 200.069 41.7923C198.97 39.5074 197.478 37.7781 195.592 36.6044C193.72 35.4308 191.622 34.8439 189.3 34.8439C186.977 34.8439 184.873 35.4308 182.988 36.6044C181.115 37.7781 179.623 39.5074 178.512 41.7923C177.413 44.0772 176.864 46.8802 176.864 50.2015C176.864 53.5227 177.413 56.3257 178.512 58.6106C179.623 60.8955 181.115 62.6248 182.988 63.7985C184.873 64.9722 186.977 65.559 189.3 65.559C191.622 65.559 193.72 64.9722 195.592 63.7985C197.478 62.6248 198.97 60.8955 200.069 58.6106C201.18 56.3257 201.735 53.5227 201.735 50.2015ZM214.04 31.0233H219.584L232.619 62.8621H233.069L246.104 31.0233H251.647V69.3796H247.302V40.2378H246.928L234.941 69.3796H230.746L218.76 40.2378H218.385V69.3796H214.04V31.0233ZM260.96 69.3796V31.0233H284.109V35.1436H265.605V48.1038H282.91V52.2242H265.605V65.2593H284.409V69.3796H260.96ZM308.887 69.3796H304.018L318.101 31.0233H322.896L336.98 69.3796H332.111L320.649 37.0914H320.349L308.887 69.3796ZM310.685 54.3967H330.313V58.517H310.685V54.3967ZM388.652 43.0096H384.008C383.733 41.6737 383.252 40.5 382.566 39.4886C381.891 38.4773 381.067 37.6283 380.093 36.9415C379.132 36.2423 378.065 35.7179 376.891 35.3683C375.717 35.0187 374.494 34.8439 373.22 34.8439C370.898 34.8439 368.794 35.4308 366.908 36.6044C365.036 37.7781 363.544 39.5074 362.432 41.7923C361.334 44.0772 360.784 46.8802 360.784 50.2015C360.784 53.5227 361.334 56.3257 362.432 58.6106C363.544 60.8955 365.036 62.6248 366.908 63.7985C368.794 64.9722 370.898 65.559 373.22 65.559C374.494 65.559 375.717 65.3842 376.891 65.0346C378.065 64.685 379.132 64.1668 380.093 63.4801C381.067 62.7809 381.891 61.9256 382.566 60.9143C383.252 59.8904 383.733 58.7168 384.008 57.3933H388.652C388.303 59.3535 387.666 61.1078 386.742 62.656C385.818 64.2043 384.67 65.5215 383.296 66.6078C381.923 67.6816 380.381 68.4994 378.67 69.0613C376.972 69.6231 375.155 69.904 373.22 69.904C369.949 69.904 367.04 69.105 364.492 67.5068C361.945 65.9086 359.941 63.6362 358.481 60.6895C357.02 57.7429 356.289 54.2469 356.289 50.2015C356.289 46.1561 357.02 42.66 358.481 39.7134C359.941 36.7667 361.945 34.4943 364.492 32.8961C367.04 31.298 369.949 30.4989 373.22 30.4989C375.155 30.4989 376.972 30.7798 378.67 31.3417C380.381 31.9035 381.923 32.7276 383.296 33.8138C384.67 34.8876 385.818 36.1986 386.742 37.7469C387.666 39.2826 388.303 41.0369 388.652 43.0096ZM397.731 69.3796H392.862L406.946 31.0233H411.74L425.824 69.3796H420.955L409.493 37.0914H409.193L397.731 69.3796ZM399.529 54.3967H419.157V58.517H399.529V54.3967ZM425.22 35.1436V31.0233H453.988V35.1436H441.926V69.3796H437.282V35.1436H425.22ZM458.248 69.3796H453.379L467.463 31.0233H472.257L486.341 69.3796H481.472L470.01 37.0914H469.71L458.248 69.3796ZM460.046 54.3967H479.674V58.517H460.046V54.3967ZM492.316 69.3796V31.0233H496.961V65.2593H514.79V69.3796H492.316ZM516.883 31.0233H522.202L532.84 48.9279H533.29L543.927 31.0233H549.246L535.387 53.5726V69.3796H530.742V53.5726L516.883 31.0233ZM576.23 40.6124C576.005 38.7145 575.094 37.2412 573.495 36.1924C571.897 35.1436 569.937 34.6192 567.615 34.6192C565.916 34.6192 564.431 34.8939 563.157 35.4432C561.896 35.9926 560.91 36.748 560.198 37.7094C559.499 38.6708 559.149 39.7633 559.149 40.9869C559.149 42.0108 559.393 42.891 559.88 43.6277C560.379 44.3519 561.016 44.9574 561.79 45.4444C562.564 45.9188 563.376 46.3121 564.225 46.6243C565.074 46.9239 565.854 47.1674 566.566 47.3547L570.461 48.4035C571.46 48.6657 572.571 49.0278 573.795 49.4898C575.031 49.9517 576.211 50.5823 577.335 51.3814C578.471 52.168 579.407 53.1793 580.144 54.4154C580.881 55.6515 581.249 57.1685 581.249 58.9665C581.249 61.0391 580.706 62.912 579.62 64.5851C578.546 66.2582 576.973 67.5879 574.9 68.5743C572.84 69.5607 570.336 70.0539 567.39 70.0539C564.643 70.0539 562.264 69.6106 560.254 68.7241C558.256 67.8376 556.683 66.6015 555.535 65.0159C554.398 63.4302 553.755 61.5885 553.605 59.4909H558.4C558.525 60.9392 559.012 62.1379 559.861 63.0868C560.722 64.0232 561.809 64.7224 563.12 65.1844C564.443 65.6339 565.867 65.8586 567.39 65.8586C569.163 65.8586 570.755 65.5715 572.166 64.9971C573.577 64.4103 574.694 63.5987 575.518 62.5624C576.342 61.5136 576.754 60.29 576.754 58.8916C576.754 57.618 576.398 56.5817 575.687 55.7826C574.975 54.9835 574.038 54.3343 572.877 53.8348C571.716 53.3354 570.461 52.8984 569.113 52.5238L564.393 51.1753C561.397 50.3138 559.024 49.084 557.276 47.4858C555.528 45.8876 554.654 43.7962 554.654 41.2117C554.654 39.0641 555.235 37.1913 556.396 35.5931C557.57 33.9824 559.143 32.7338 561.116 31.8473C563.101 30.9484 565.317 30.4989 567.764 30.4989C570.237 30.4989 572.434 30.9421 574.357 31.8286C576.28 32.7026 577.803 33.9012 578.927 35.4245C580.063 36.9478 580.662 38.6771 580.725 40.6124H576.23ZM586.788 35.1436V31.0233H615.555V35.1436H603.494V69.3796H598.849V35.1436H586.788Z" fill="white"/>
</svg>
