<svg width="257" height="128" viewBox="0 0 257 128" fill="none" xmlns="http://www.w3.org/2000/svg">
<path d="M40.0256 57.6863C46.5197 57.6863 51.7842 52.0544 51.7842 45.1071C51.7842 38.1598 46.5197 32.5278 40.0256 32.5278C33.5316 32.5278 28.2671 38.1598 28.2671 45.1071C28.2671 52.0544 33.5316 57.6863 40.0256 57.6863Z" fill="#FF5F00"/>
<path d="M37.0241 31.3318C37.0256 32.7468 36.6347 34.1305 35.901 35.3078C35.1672 36.4851 34.1235 37.4031 32.902 37.9457C31.6804 38.4883 30.3358 38.6311 29.0384 38.356C27.741 38.0809 26.5489 37.4003 25.6132 36.4003C24.6774 35.4003 24.0398 34.1259 23.7812 32.7382C23.5227 31.3505 23.6546 29.912 24.1604 28.6045C24.6663 27.2971 25.5232 26.1795 26.6229 25.3932C27.7225 24.607 29.0155 24.1873 30.3382 24.1873C31.2158 24.1862 32.0851 24.3702 32.8962 24.7288C33.7073 25.0874 34.4444 25.6135 35.0654 26.277C35.6863 26.9406 36.1789 27.7285 36.515 28.5959C36.8511 29.4632 37.0241 30.3929 37.0241 31.3318Z" fill="#F5A800"/>
<path d="M61.982 53.3994C61.982 55.0395 61.5274 56.6428 60.6756 58.0065C59.8239 59.3702 58.6133 60.4331 57.1969 61.0607C55.7805 61.6884 54.2219 61.8526 52.7183 61.5326C51.2146 61.2126 49.8334 60.4229 48.7494 59.2631C47.6653 58.1034 46.927 56.6258 46.628 55.0172C46.3289 53.4086 46.4824 51.7413 47.0691 50.226C47.6557 48.7108 48.6493 47.4157 49.924 46.5045C51.1987 45.5933 52.6974 45.1069 54.2305 45.1069C55.2484 45.1069 56.2564 45.3214 57.1969 45.7382C58.1373 46.1549 58.9918 46.7657 59.7116 47.5358C60.4314 48.3058 61.0024 49.2199 61.3919 50.226C61.7815 51.2321 61.982 52.3105 61.982 53.3994Z" fill="#FFDD00"/>
<path d="M47.8222 0C60.0309 0 68.833 4.14224 77.0872 12.0414C77.3357 12.2581 77.5381 12.5292 77.6807 12.8363C77.8234 13.1435 77.9031 13.4797 77.9144 13.8225C77.9258 14.1653 77.8686 14.5067 77.7466 14.8239C77.6247 15.1411 77.4408 15.4268 77.2073 15.6618L69.7935 23.8018C69.6127 24.0415 69.3841 24.2348 69.1244 24.3676C68.8647 24.5004 68.5805 24.5693 68.2927 24.5693C68.0049 24.5693 67.7207 24.5004 67.461 24.3676C67.2013 24.2348 66.9727 24.0415 66.7919 23.8018C61.6402 18.9503 55.0304 16.2409 48.1673 16.1676C32.6944 16.1676 21.2059 30.0072 21.2059 46.3112C21.2059 62.4788 32.8144 76.1899 48.2874 76.1899C55.5436 76.1899 61.7118 73.2117 66.7919 68.8206C67.2047 68.4257 67.739 68.2073 68.2927 68.2073C68.8464 68.2073 69.3807 68.4257 69.7935 68.8206L77.2973 77.097C78.2653 78.0042 78.0477 79.6819 77.1773 80.589C69.3174 88.7569 58.7566 93.2673 47.7996 93.1362C36.2568 93.1362 25.1867 88.2308 17.0246 79.4991C8.86261 70.7674 4.27722 58.9246 4.27722 46.5761C4.27722 34.2276 8.86261 22.3849 17.0246 13.6532C25.1867 4.92148 36.2568 0.0160556 47.7996 0.0160556L47.8222 0Z" fill="white"/>
<path d="M48.5876 19.4107C48.5876 20.6078 48.2557 21.7781 47.634 22.7735C47.0123 23.7689 46.1287 24.5447 45.0948 25.0028C44.061 25.4609 42.9234 25.5808 41.8258 25.3472C40.7283 25.1137 39.7202 24.5372 38.9289 23.6907C38.1376 22.8442 37.5988 21.7657 37.3804 20.5916C37.1621 19.4174 37.2742 18.2004 37.7024 17.0944C38.1306 15.9884 38.8558 15.0431 39.7863 14.378C40.7167 13.7129 41.8106 13.3579 42.9296 13.3579C44.4302 13.3579 45.8693 13.9956 46.9304 15.1307C47.9915 16.2659 48.5876 17.8054 48.5876 19.4107Z" fill="#8D7E35"/>
<path d="M19.405 26.1619C19.405 27.1752 19.124 28.1657 18.5977 29.0081C18.0713 29.8506 17.3231 30.507 16.4479 30.8944C15.5727 31.2818 14.6097 31.3828 13.6808 31.1845C12.7519 30.9862 11.8989 30.4976 11.2296 29.7806C10.5604 29.0635 10.105 28.1502 9.92116 27.1561C9.73728 26.1621 9.83315 25.1321 10.1967 24.1964C10.5602 23.2607 11.1749 22.4613 11.9632 21.8995C12.7515 21.3377 13.6779 21.0387 14.625 21.0403C15.8935 21.0424 17.1092 21.5829 18.0054 22.5432C18.9016 23.5035 19.405 24.8049 19.405 26.1619Z" fill="#FFDD00"/>
<path d="M57.3821 10.4439C57.3836 11.0317 57.222 11.6067 56.9178 12.0962C56.6136 12.5857 56.1806 12.9677 55.6734 13.1937C55.1662 13.4197 54.6077 13.4797 54.0686 13.366C53.5295 13.2523 53.0341 12.9701 52.6451 12.555C52.256 12.1399 51.9909 11.6107 51.8831 11.0343C51.7754 10.4579 51.8299 9.86032 52.0399 9.31711C52.2498 8.77391 52.6056 8.30955 53.0624 7.98282C53.5191 7.6561 54.0562 7.48169 54.6056 7.48169C55.3407 7.48169 56.0458 7.79352 56.5662 8.3488C57.0867 8.90409 57.3801 9.65751 57.3821 10.4439Z" fill="#FFDD00"/>
<path d="M45.8487 14.9236C45.8487 15.6717 45.6412 16.4031 45.2525 17.025C44.8638 17.647 44.3114 18.1316 43.6651 18.4175C43.0189 18.7035 42.3079 18.7779 41.6221 18.6313C40.9363 18.4848 40.3065 18.1239 39.8126 17.5943C39.3186 17.0647 38.9826 16.3903 38.847 15.6563C38.7115 14.9223 38.7826 14.1618 39.0512 13.4711C39.3199 12.7803 39.774 12.1904 40.3562 11.7759C40.9384 11.3614 41.6225 11.141 42.3219 11.1426C42.7856 11.1426 43.2449 11.2404 43.6732 11.4306C44.1016 11.6207 44.4908 11.8993 44.8184 12.2505C45.1459 12.6017 45.4056 13.0186 45.5824 13.4773C45.7592 13.936 45.8497 14.4274 45.8487 14.9236Z" fill="#F5A800"/>
<path d="M35.3958 68.4914C35.3958 69.7377 35.0503 70.9561 34.4031 71.9924C33.7558 73.0287 32.8359 73.8364 31.7595 74.3133C30.6831 74.7903 29.4987 74.9151 28.3561 74.672C27.2134 74.4288 26.1639 73.8286 25.34 72.9473C24.5162 72.066 23.9552 70.9432 23.7279 69.7208C23.5006 68.4984 23.6173 67.2313 24.0631 66.0798C24.509 64.9283 25.264 63.9442 26.2327 63.2517C27.2014 62.5593 28.3402 62.1897 29.5053 62.1897C30.2791 62.1886 31.0455 62.3509 31.7607 62.6672C32.4758 62.9835 33.1255 63.4477 33.6727 64.0331C34.2199 64.6184 34.6538 65.3135 34.9494 66.0786C35.2451 66.8436 35.3968 67.6635 35.3958 68.4914Z" fill="#90803E"/>
<path d="M54.6133 92.5904C54.6148 93.1782 54.4532 93.7532 54.149 94.2427C53.8448 94.7322 53.4117 95.1142 52.9045 95.3402C52.3974 95.5662 51.8389 95.6262 51.2998 95.5125C50.7607 95.3988 50.2653 95.1166 49.8763 94.7015C49.4872 94.2864 49.2221 93.7572 49.1143 93.1808C49.0066 92.6044 49.0611 92.0068 49.271 91.4636C49.481 90.9204 49.8368 90.456 50.2936 90.1293C50.7503 89.8026 51.2874 89.6282 51.8368 89.6282C52.5719 89.6282 53.277 89.94 53.7974 90.4953C54.3179 91.0506 54.6113 91.804 54.6133 92.5904Z" fill="#8D7E35"/>
<path d="M20.8908 53.9375C21.989 53.9375 22.8793 52.9851 22.8793 51.8102C22.8793 50.6353 21.989 49.6829 20.8908 49.6829C19.7925 49.6829 18.9022 50.6353 18.9022 51.8102C18.9022 52.9851 19.7925 53.9375 20.8908 53.9375Z" fill="#8D7E35"/>
<path d="M6.94857 47.3069C6.95006 48.0423 6.74755 48.7617 6.3667 49.374C5.98584 49.9863 5.44376 50.4639 4.80904 50.7465C4.17433 51.029 3.47553 51.1038 2.80109 50.9613C2.12665 50.8188 1.50689 50.4654 1.02025 49.9459C0.533614 49.4264 0.201976 48.7642 0.0673102 48.043C-0.0673554 47.3218 0.0010074 46.5741 0.263746 45.8944C0.526485 45.2148 0.971789 44.6339 1.54329 44.2251C2.1148 43.8163 2.78682 43.5982 3.47428 43.5982C3.93018 43.5971 4.38179 43.6922 4.80327 43.8782C5.22474 44.0641 5.60781 44.3371 5.93053 44.6816C6.25324 45.0261 6.50927 45.4353 6.68396 45.8858C6.85865 46.3363 6.94857 46.8192 6.94857 47.3069Z" fill="#8D7E35"/>
<path d="M54.2981 76.8402C54.2981 77.4594 54.1265 78.0647 53.8049 78.5796C53.4833 79.0944 53.0262 79.4957 52.4915 79.7327C51.9568 79.9696 51.3683 80.0316 50.8006 79.9108C50.233 79.79 49.7115 79.4919 49.3022 79.054C48.8929 78.6162 48.6142 78.0583 48.5013 77.451C48.3884 76.8437 48.4463 76.2142 48.6678 75.6421C48.8893 75.0701 49.2644 74.5811 49.7457 74.2371C50.227 73.8931 50.7928 73.7095 51.3716 73.7095C52.1471 73.7116 52.8903 74.0421 53.4387 74.6288C53.9871 75.2155 54.2961 76.0106 54.2981 76.8402Z" fill="#FF5F00"/>
<path d="M12.4115 21.9955C12.4115 22.6798 12.2218 23.3488 11.8664 23.9178C11.511 24.4867 11.0059 24.9302 10.4149 25.1921C9.82398 25.4539 9.1737 25.5225 8.54633 25.389C7.91897 25.2555 7.34268 24.9259 6.89038 24.4421C6.43807 23.9582 6.13005 23.3417 6.00526 22.6705C5.88047 21.9994 5.94452 21.3037 6.18931 20.6715C6.43409 20.0393 6.84862 19.4989 7.38047 19.1187C7.91233 18.7386 8.53763 18.5356 9.17728 18.5356C10.035 18.5356 10.8577 18.9002 11.4642 19.549C12.0707 20.1979 12.4115 21.0779 12.4115 21.9955Z" fill="#FF5F00"/>
<path d="M30.5257 7.48176C30.5272 8.21438 30.3254 8.93098 29.9459 9.54079C29.5663 10.1506 29.0261 10.6262 28.3937 10.9073C27.7613 11.1884 27.0652 11.2623 26.3934 11.1198C25.7217 10.9772 25.1046 10.6246 24.6204 10.1066C24.1361 9.58855 23.8065 8.92841 23.6733 8.20979C23.54 7.49118 23.6092 6.74642 23.8719 6.06988C24.1347 5.39333 24.5792 4.81544 25.1493 4.40941C25.7193 4.00338 26.3891 3.78748 27.074 3.78907C27.9894 3.78907 28.8674 4.17812 29.5147 4.87064C30.1621 5.56315 30.5257 6.5024 30.5257 7.48176Z" fill="#FF5F00"/>
<path d="M12.0663 47.3067C12.0663 47.918 11.8969 48.5155 11.5794 49.0237C11.262 49.532 10.8108 49.9281 10.2829 50.1621C9.755 50.396 9.17412 50.4572 8.61371 50.3379C8.0533 50.2187 7.53853 49.9243 7.1345 49.4921C6.73046 49.0599 6.45531 48.5092 6.34384 47.9096C6.23237 47.3101 6.28959 46.6887 6.50825 46.124C6.72691 45.5592 7.09719 45.0765 7.57229 44.7369C8.04738 44.3973 8.60594 44.2161 9.17732 44.2161C9.94292 44.2182 10.6766 44.5445 11.218 45.1236C11.7593 45.7028 12.0643 46.4877 12.0663 47.3067Z" fill="#F5A800"/>
<path d="M43.68 68.3552C45.3377 68.3552 46.6816 66.9176 46.6816 65.1441C46.6816 63.3707 45.3377 61.9331 43.68 61.9331C42.0223 61.9331 40.6785 63.3707 40.6785 65.1441C40.6785 66.9176 42.0223 68.3552 43.68 68.3552Z" fill="#F5A800"/>
<path d="M25.7759 72.0877C25.7774 72.7028 25.6081 73.3046 25.2896 73.8167C24.9711 74.3288 24.5176 74.7282 23.9867 74.9644C23.4557 75.2005 22.8712 75.2627 22.3072 75.1431C21.7432 75.0235 21.225 74.7274 20.8185 74.2925C20.4119 73.8575 20.1351 73.3032 20.0233 72.6998C19.9115 72.0964 19.9697 71.4711 20.1904 70.9031C20.4111 70.3351 20.7845 69.85 21.2632 69.5093C21.7419 69.1685 22.3044 68.9874 22.8794 68.989C23.6476 68.989 24.3843 69.3155 24.9275 69.8966C25.4707 70.4777 25.7759 71.2659 25.7759 72.0877Z" fill="#00C4B3"/>
<path d="M25.7083 18.6562C25.7098 19.1836 25.5649 19.6997 25.2921 20.139C25.0192 20.5784 24.6307 20.9212 24.1756 21.1242C23.7205 21.3271 23.2193 21.381 22.7356 21.2791C22.2518 21.1772 21.8072 20.924 21.4581 20.5516C21.1089 20.1792 20.8709 19.7043 20.7741 19.1871C20.6774 18.6699 20.7263 18.1336 20.9146 17.6461C21.103 17.1587 21.4223 16.742 21.8321 16.4487C22.242 16.1555 22.7239 15.999 23.217 15.999C23.8764 15.999 24.5089 16.2787 24.9759 16.7768C25.4429 17.2749 25.7063 17.9507 25.7083 18.6562Z" fill="#00C4B3"/>
<path d="M68.9456 90.0216C70.6821 90.0216 72.0898 88.5156 72.0898 86.658C72.0898 84.8004 70.6821 83.2944 68.9456 83.2944C67.2092 83.2944 65.8015 84.8004 65.8015 86.658C65.8015 88.5156 67.2092 90.0216 68.9456 90.0216Z" fill="#00C4B3"/>
<path d="M13.8821 66.4444C13.8998 67.3049 13.6784 68.1518 13.246 68.8778C12.8136 69.6037 12.1897 70.1762 11.4531 70.5227C10.7166 70.8692 9.90047 70.9741 9.10811 70.8243C8.31576 70.6745 7.58276 70.2766 7.00184 69.681C6.42093 69.0854 6.0182 68.3188 5.84464 67.4783C5.67108 66.6377 5.73448 65.761 6.02681 64.959C6.31914 64.1571 6.82726 63.4659 7.48689 62.9729C8.14652 62.48 8.92802 62.2074 9.73248 62.1897C10.8094 62.1682 11.8504 62.6037 12.628 63.4009C13.4056 64.1982 13.8565 65.2924 13.8821 66.4444Z" fill="#00C4B3"/>
<path d="M37.4293 72.4091C37.4293 72.893 37.2952 73.3661 37.0441 73.7685C36.7929 74.171 36.4359 74.4848 36.0182 74.6704C35.6004 74.8559 35.1406 74.9049 34.6969 74.8111C34.2531 74.7172 33.8453 74.4848 33.5249 74.1432C33.2045 73.8016 32.986 73.3661 32.8968 72.8917C32.8077 72.4173 32.8519 71.9252 33.024 71.4777C33.1961 71.0302 33.4882 70.6472 33.8636 70.3772C34.239 70.1072 34.6808 69.9623 35.1331 69.9607C35.7408 69.9607 36.3237 70.2184 36.7541 70.6773C37.1845 71.1363 37.4273 71.759 37.4293 72.4091Z" fill="#CDDE00"/>
<path d="M26.7587 86.1601C26.7602 86.7276 26.6042 87.2828 26.3104 87.7553C26.0166 88.2278 25.5983 88.5964 25.1085 88.8143C24.6187 89.0322 24.0794 89.0896 23.5591 88.9793C23.0387 88.869 22.5607 88.5958 22.1856 88.1946C21.8105 87.7933 21.5552 87.2819 21.4521 86.7252C21.349 86.1686 21.4027 85.5917 21.6064 85.0677C21.81 84.5437 22.1546 84.0962 22.5963 83.7819C23.0379 83.4676 23.5569 83.3007 24.0874 83.3023C24.7953 83.3044 25.4736 83.6062 25.9741 84.1416C26.4747 84.6771 26.7568 85.4028 26.7587 86.1601Z" fill="#FF5F00"/>
<path d="M58.4626 21.9955C58.4686 22.6081 58.3042 23.2088 57.9904 23.7212C57.6766 24.2337 57.2275 24.6348 56.7002 24.8737C56.1728 25.1125 55.591 25.1783 55.0287 25.0627C54.4663 24.9471 53.9487 24.6553 53.5417 24.2244C53.1346 23.7935 52.8565 23.2429 52.7426 22.6425C52.6286 22.0421 52.6841 21.4191 52.9018 20.8524C53.1196 20.2858 53.4898 19.8012 53.9655 19.4602C54.4413 19.1191 55.001 18.937 55.5737 18.937C56.3347 18.937 57.065 19.2582 57.6059 19.8308C58.1469 20.4035 58.4547 21.1814 58.4626 21.9955Z" fill="#00C4B3"/>
<path d="M40.9786 85.6625C40.9786 86.2547 40.8145 86.8336 40.5069 87.326C40.1994 87.8185 39.7622 88.2022 39.2508 88.4289C38.7393 88.6555 38.1766 88.7148 37.6336 88.5993C37.0907 88.4837 36.592 88.1986 36.2005 87.7798C35.8091 87.361 35.5425 86.8275 35.4345 86.2467C35.3265 85.6658 35.382 85.0638 35.5938 84.5166C35.8056 83.9695 36.1644 83.5019 36.6247 83.1728C37.085 82.8438 37.6261 82.6682 38.1797 82.6682C38.922 82.6682 39.6339 82.9837 40.1588 83.5452C40.6837 84.1068 40.9786 84.8684 40.9786 85.6625Z" fill="#FFDD00"/>
<path d="M61.4792 71.4377C61.4792 72.5078 61.1826 73.5539 60.6269 74.4437C60.0711 75.3334 59.2812 76.0269 58.3571 76.4364C57.4329 76.846 56.416 76.9531 55.4349 76.7443C54.4539 76.5356 53.5527 76.0203 52.8454 75.2636C52.138 74.5069 51.6563 73.5428 51.4612 72.4932C51.266 71.4437 51.3662 70.3558 51.749 69.3672C52.1318 68.3785 52.78 67.5335 53.6118 66.939C54.4435 66.3444 55.4213 66.0271 56.4216 66.0271C57.763 66.0271 59.0494 66.5971 59.9979 67.6118C60.9464 68.6265 61.4792 70.0027 61.4792 71.4377Z" fill="#CDDE00"/>
<path d="M73.3954 6.89579C73.3954 7.56104 73.211 8.21135 72.8655 8.76448C72.5201 9.31762 72.029 9.74874 71.4545 10.0033C70.88 10.2579 70.2478 10.3245 69.6379 10.1947C69.028 10.0649 68.4678 9.74459 68.0281 9.27419C67.5884 8.80378 67.2889 8.20445 67.1676 7.55199C67.0463 6.89952 67.1085 6.22322 67.3465 5.60861C67.5845 4.994 67.9875 4.46868 68.5045 4.09909C69.0216 3.7295 69.6295 3.53223 70.2513 3.53223C71.0852 3.53223 71.8849 3.8866 72.4745 4.51739C73.0642 5.14818 73.3954 6.00372 73.3954 6.89579Z" fill="#CDDE00"/>
<path d="M10.0402 70.7073C10.0417 71.2288 9.89841 71.7389 9.62854 72.1732C9.35866 72.6074 8.97433 72.9461 8.52429 73.1464C8.07425 73.3467 7.57875 73.3995 7.10061 73.2982C6.62247 73.1968 6.18323 72.9459 5.83857 72.5772C5.4939 72.2084 5.25933 71.7386 5.1646 71.227C5.06987 70.7155 5.11925 70.1855 5.30647 69.704C5.49369 69.2225 5.81031 68.8114 6.21621 68.5227C6.62211 68.234 7.09901 68.0807 7.58644 68.0823C8.23661 68.0844 8.85959 68.3616 9.31933 68.8535C9.77907 69.3453 10.0382 70.0118 10.0402 70.7073Z" fill="#CDDE00"/>
<path d="M72.0446 58.0073L82.7752 33.3225C82.8304 33.2052 82.9136 33.1056 83.0164 33.0337C83.1192 32.9618 83.2378 32.9202 83.3605 32.9131H83.7056C83.8275 32.9191 83.9456 32.9604 84.0474 33.0325C84.1491 33.1045 84.2307 33.2048 84.2834 33.3225L95.0215 58.0073C95.0731 58.1104 95.0978 58.2264 95.093 58.3432C95.0882 58.46 95.054 58.5733 94.9941 58.671C94.9342 58.7688 94.8508 58.8475 94.7526 58.8988C94.6544 58.9501 94.5451 58.9722 94.4362 58.9626H90.6317C90.0164 58.9626 89.7387 58.7459 89.4311 58.0475L88.1929 55.1495H78.8957L77.665 58.0796C77.571 58.3469 77.4009 58.5758 77.1788 58.7343C76.9567 58.8927 76.6937 58.9726 76.4269 58.9626H72.6749C72.5617 58.9857 72.4447 58.9734 72.3378 58.9272C72.2309 58.881 72.1388 58.8028 72.0723 58.7021C72.0058 58.6014 71.9679 58.4823 71.9629 58.3591C71.958 58.2359 71.9864 58.1138 72.0446 58.0073ZM86.1369 50.1564L83.533 44.1036L80.9667 50.1564H86.1369Z" fill="white"/>
<path d="M104.364 38.6768H98.2408C98.1548 38.6778 98.0694 38.6605 97.9898 38.6258C97.9101 38.5911 97.8377 38.5397 97.7769 38.4746C97.7161 38.4095 97.668 38.3321 97.6356 38.2469C97.6031 38.1617 97.5869 38.0704 97.5879 37.9784V33.9646C97.5869 33.8725 97.6031 33.7812 97.6356 33.696C97.668 33.6108 97.7161 33.5334 97.7769 33.4683C97.8377 33.4033 97.9101 33.3518 97.9898 33.3171C98.0694 33.2824 98.1548 33.2651 98.2408 33.2662H115.912C116.086 33.2662 116.252 33.3397 116.374 33.4707C116.496 33.6017 116.565 33.7793 116.565 33.9646V37.9784C116.565 38.1636 116.496 38.3412 116.374 38.4722C116.252 38.6032 116.086 38.6768 115.912 38.6768H109.782V58.2721C109.776 58.4541 109.707 58.6272 109.587 58.7567C109.467 58.8861 109.306 58.9625 109.136 58.9705H105.017C104.845 58.9645 104.683 58.889 104.561 58.7593C104.44 58.6296 104.37 58.4554 104.364 58.2721V38.6768Z" fill="white"/>
<path d="M119.101 58.0073L129.824 33.3225C129.88 33.2052 129.963 33.1056 130.066 33.0337C130.169 32.9618 130.287 32.9202 130.41 32.9131H130.755C130.877 32.9191 130.995 32.9604 131.097 33.0325C131.198 33.1045 131.28 33.2048 131.333 33.3225L142.071 58.0073C142.122 58.1104 142.147 58.2264 142.142 58.3432C142.138 58.46 142.103 58.5733 142.043 58.671C141.984 58.7688 141.9 58.8475 141.802 58.8988C141.704 58.9501 141.594 58.9722 141.486 58.9626H137.681C137.066 58.9626 136.788 58.7459 136.48 58.0475L135.242 55.1495H125.922L124.692 58.0796C124.598 58.3469 124.428 58.5758 124.206 58.7343C123.983 58.8927 123.721 58.9726 123.454 58.9626H119.702C119.591 58.9784 119.478 58.9607 119.376 58.9115C119.274 58.8624 119.187 58.7837 119.124 58.6843C119.062 58.585 119.027 58.469 119.023 58.3493C119.019 58.2297 119.046 58.1113 119.101 58.0073ZM133.194 50.1564L130.575 44.1036L128.009 50.1564H133.194Z" fill="white"/>
<path d="M148.314 33.9809C148.314 33.7956 148.383 33.618 148.505 33.487C148.628 33.356 148.794 33.2825 148.967 33.2825H153.086C153.258 33.2885 153.421 33.364 153.542 33.4937C153.663 33.6234 153.734 33.7976 153.739 33.9809V53.5682H163.127C163.3 53.5682 163.466 53.6418 163.588 53.7728C163.711 53.9037 163.779 54.0814 163.779 54.2666V58.2804C163.779 58.4656 163.711 58.6433 163.588 58.7743C163.466 58.9052 163.3 58.9788 163.127 58.9788H148.967C148.794 58.9788 148.628 58.9052 148.505 58.7743C148.383 58.6433 148.314 58.4656 148.314 58.2804V33.9809Z" fill="white"/>
<path d="M173.88 46.6002L166.301 34.35C166.234 34.2459 166.196 34.1241 166.19 33.998C166.184 33.872 166.211 33.7466 166.268 33.636C166.325 33.5254 166.409 33.4337 166.511 33.3713C166.614 33.3089 166.731 33.2781 166.849 33.2824H171.351C171.46 33.2876 171.566 33.3201 171.661 33.3773C171.756 33.4344 171.838 33.5146 171.899 33.6115L176.664 41.1334L181.429 33.6115C181.486 33.5107 181.566 33.4275 181.662 33.3698C181.758 33.3121 181.866 33.282 181.976 33.2824H186.441C186.559 33.2781 186.676 33.3089 186.778 33.3713C186.881 33.4337 186.965 33.5254 187.022 33.636C187.079 33.7466 187.106 33.872 187.1 33.998C187.094 34.1241 187.056 34.2459 186.989 34.35L179.267 46.568V58.2723C179.262 58.4556 179.191 58.6298 179.07 58.7595C178.949 58.8892 178.786 58.9647 178.615 58.9707H174.533C174.359 58.9707 174.193 58.8971 174.071 58.7661C173.948 58.6352 173.88 58.4575 173.88 58.2723V46.6002Z" fill="white"/>
<path d="M192.969 55.4787L194.583 52.4362C194.716 52.2506 194.909 52.1246 195.124 52.0831C195.339 52.0415 195.561 52.0873 195.746 52.2114C195.888 52.2837 198.357 54.2344 200.616 54.2344C200.909 54.2664 201.205 54.2338 201.486 54.1385C201.767 54.0432 202.026 53.8873 202.249 53.6804C202.471 53.4734 202.651 53.2199 202.778 52.9355C202.905 52.6511 202.976 52.3418 202.987 52.0268C202.987 50.4855 201.787 49.3135 199.453 48.3261C196.504 47.0818 192.797 44.6173 192.797 40.2182C192.797 36.5817 195.438 32.9131 200.721 32.9131C203.375 32.9914 205.941 33.9539 208.06 35.6665C208.218 35.8047 208.325 35.9976 208.363 36.2118C208.402 36.426 208.369 36.6478 208.27 36.8386L206.521 39.6643C206.281 40.0657 205.658 40.4028 205.351 40.1459C205.043 39.8891 202.537 37.9384 200.451 37.9384C199.934 37.8863 199.418 38.0529 199.014 38.4025C198.61 38.752 198.35 39.2568 198.29 39.8088C198.29 41.1735 199.318 42.2171 202.042 43.373C204.766 44.529 208.968 46.7446 208.968 51.7378C208.968 55.5188 205.914 59.3319 200.871 59.3319C196.414 59.3319 193.945 57.3491 193.157 56.5062C192.797 56.1369 192.699 55.9924 192.969 55.4787Z" fill="white"/>
<path d="M222.122 38.6767H215.969C215.796 38.6767 215.63 38.6031 215.507 38.4722C215.385 38.3412 215.316 38.1635 215.316 37.9783V33.9645C215.316 33.7793 215.385 33.6016 215.507 33.4707C215.63 33.3397 215.796 33.2661 215.969 33.2661H233.648C233.733 33.2661 233.818 33.2842 233.897 33.3194C233.975 33.3546 234.047 33.4062 234.107 33.4712C234.167 33.5361 234.214 33.6132 234.246 33.6979C234.278 33.7825 234.294 33.8732 234.293 33.9645V37.9783C234.294 38.0696 234.278 38.1603 234.246 38.245C234.214 38.3297 234.167 38.4067 234.107 38.4717C234.047 38.5366 233.975 38.5882 233.897 38.6234C233.818 38.6586 233.733 38.6767 233.648 38.6767H227.517V58.2721C227.512 58.4554 227.441 58.6296 227.32 58.7593C227.199 58.889 227.036 58.9645 226.865 58.9705H222.752C222.585 58.9586 222.428 58.8805 222.311 58.7514C222.195 58.6223 222.127 58.4514 222.122 58.2721V38.6767Z" fill="white"/>
<path d="M241.002 55.4787L242.615 52.4362C242.749 52.25 242.943 52.1238 243.16 52.0823C243.376 52.0407 243.599 52.0868 243.786 52.2114C243.921 52.2837 246.39 54.2344 248.656 54.2344C248.948 54.2653 249.244 54.2318 249.524 54.136C249.804 54.0401 250.062 53.884 250.284 53.6772C250.505 53.4704 250.685 53.2173 250.811 52.9334C250.938 52.6496 251.009 52.341 251.019 52.0268C251.019 50.4855 249.819 49.3135 247.485 48.3261C244.536 47.0818 240.837 44.6173 240.837 40.2182C240.837 36.5817 243.471 32.9131 248.753 32.9131C251.408 32.9882 253.975 33.9511 256.092 35.6665C256.25 35.8047 256.357 35.9976 256.396 36.2118C256.434 36.426 256.401 36.6478 256.302 36.8386L254.554 39.6643C254.314 40.0657 253.691 40.4028 253.383 40.1459C253.075 39.8891 250.577 37.9384 248.483 37.9384C247.966 37.8863 247.45 38.0529 247.046 38.4025C246.642 38.752 246.382 39.2568 246.322 39.8088C246.322 41.1735 247.35 42.2171 250.074 43.373C252.798 44.529 257 46.7446 257 51.7378C257 55.5188 253.946 59.3319 248.911 59.3319C244.446 59.3319 241.977 57.3491 241.189 56.5062C240.837 56.1369 240.732 55.9924 241.002 55.4787Z" fill="white"/>
<path d="M222.265 88.7771L107.493 90.1097C107.372 90.1086 107.252 90.1332 107.14 90.1819C107.028 90.2307 106.927 90.3026 106.841 90.3937C106.755 90.4847 106.687 90.5931 106.64 90.7124C106.594 90.8318 106.57 90.9598 106.57 91.0891V107.562C106.572 107.822 106.67 108.071 106.843 108.255C107.016 108.438 107.249 108.541 107.493 108.541C107.568 108.55 107.643 108.55 107.718 108.541L222.122 111.118H222.242C222.363 111.119 222.483 111.094 222.595 111.046C222.707 110.997 222.808 110.925 222.894 110.834C222.98 110.743 223.048 110.635 223.095 110.515C223.141 110.396 223.165 110.268 223.165 110.139V89.7484C223.161 89.4935 223.065 89.25 222.898 89.0689C222.73 88.8879 222.503 88.7833 222.265 88.7771Z" fill="#00C4B3"/>
<path d="M151.06 74.448C150.993 74.4393 150.925 74.4393 150.858 74.448L104.109 72.417H103.996C103.872 72.416 103.75 72.4411 103.635 72.4911C103.52 72.541 103.416 72.6148 103.328 72.7081C103.24 72.8014 103.17 72.9123 103.123 73.0346C103.075 73.1569 103.051 73.288 103.051 73.4205V91.7234C103.051 91.8559 103.075 91.987 103.123 92.1093C103.17 92.2315 103.24 92.3425 103.328 92.4358C103.416 92.5291 103.52 92.6028 103.635 92.6528C103.75 92.7027 103.872 92.7279 103.996 92.7268L151.075 90.7199C151.326 90.7178 151.565 90.6106 151.742 90.4214C151.919 90.2321 152.019 89.9761 152.021 89.7085V75.4595C152.021 75.3253 151.996 75.1924 151.948 75.0687C151.899 74.9449 151.828 74.8327 151.739 74.7385C151.649 74.6444 151.543 74.5702 151.427 74.5203C151.31 74.4705 151.186 74.4459 151.06 74.448Z" fill="#FF5F00"/>
<path d="M118.569 83.7438C118.79 84.1559 118.902 84.6252 118.891 85.1004C118.911 85.4805 118.854 85.8607 118.725 86.2152C118.595 86.5698 118.396 86.8904 118.141 87.1555C117.571 87.678 116.834 87.9428 116.085 87.894H112.438V78.1646H115.942C116.693 78.1129 117.435 78.3651 118.021 78.871C118.276 79.1242 118.476 79.4348 118.606 79.7804C118.735 80.126 118.792 80.4981 118.771 80.8699C118.776 81.288 118.672 81.6994 118.471 82.058C118.27 82.4106 117.975 82.6904 117.623 82.8607C118.016 83.0438 118.346 83.3522 118.569 83.7438ZM114.171 79.7701V82.1382H115.822C116.148 82.1636 116.47 82.0544 116.723 81.8332C116.828 81.7232 116.91 81.5903 116.963 81.4435C117.016 81.2967 117.039 81.1394 117.03 80.9823C117.041 80.8177 117.019 80.6527 116.966 80.4978C116.913 80.343 116.83 80.2017 116.723 80.0832C116.471 79.8591 116.149 79.747 115.822 79.7701H114.171ZM116.85 85.9353C116.961 85.8058 117.046 85.6536 117.1 85.4881C117.154 85.3225 117.176 85.147 117.165 84.972C117.174 84.8069 117.151 84.6417 117.097 84.4869C117.042 84.332 116.958 84.191 116.85 84.0729C116.725 83.955 116.578 83.8651 116.42 83.8086C116.261 83.7521 116.094 83.73 115.927 83.7438H114.171V86.2805H115.927C116.095 86.2954 116.264 86.2724 116.423 86.213C116.582 86.1535 116.728 86.0589 116.85 85.9353Z" fill="white"/>
<path d="M120.865 84.1291V81.8975C120.865 79.3126 121.968 78.0201 124.174 78.0201C124.611 77.9953 125.048 78.0633 125.46 78.2204C125.873 78.3775 126.252 78.6205 126.575 78.9353C126.898 79.3418 127.142 79.8132 127.293 80.3218C127.444 80.8304 127.498 81.3661 127.453 81.8975V84.1291C127.501 84.6625 127.446 85.2007 127.291 85.7103C127.136 86.2199 126.885 86.6899 126.553 87.0913C125.882 87.7159 125.009 88.0331 124.122 87.9743C121.955 87.9743 120.87 86.6926 120.865 84.1291ZM125.367 85.8149C125.66 85.2992 125.794 84.6984 125.75 84.097V82.0018C125.798 81.3746 125.664 80.7468 125.367 80.2036C125.231 80.0129 125.053 79.8616 124.849 79.7635C124.644 79.6653 124.42 79.6235 124.197 79.6417C123.97 79.6205 123.742 79.6592 123.533 79.7544C123.323 79.8496 123.139 79.9983 122.996 80.1876C122.706 80.739 122.578 81.3713 122.628 82.0018V84.097C122.581 84.6992 122.709 85.3024 122.996 85.823C123.141 86.0082 123.326 86.1532 123.536 86.2454C123.745 86.3377 123.971 86.3745 124.197 86.3528C124.41 86.3632 124.624 86.32 124.819 86.2266C125.014 86.1332 125.187 85.9922 125.322 85.8149H125.367Z" fill="white"/>
<path d="M129.419 78.1648H131.145V86.2807H135.122V87.8862H129.419V78.1648Z" fill="white"/>
<path d="M136.878 78.1646H140.082C140.516 78.1388 140.95 78.205 141.359 78.3593C141.769 78.5136 142.146 78.753 142.468 79.0637C142.791 79.4702 143.035 79.9416 143.186 80.4502C143.337 80.9588 143.391 81.4945 143.346 82.0259V84.0167C143.393 84.5495 143.338 85.0868 143.185 85.5961C143.031 86.1054 142.782 86.5759 142.453 86.9789C141.79 87.6138 140.919 87.9427 140.03 87.894H136.878V78.1646ZM140.067 86.2805C140.288 86.2985 140.51 86.2581 140.712 86.1629C140.915 86.0678 141.093 85.9207 141.23 85.7346C141.529 85.2155 141.666 84.6083 141.621 84.0007V82.1222C141.666 81.4952 141.533 80.868 141.238 80.324C141.1 80.1359 140.922 79.9869 140.717 79.8903C140.513 79.7937 140.29 79.7524 140.067 79.7701H138.604V86.2805H140.067Z" fill="white"/>
<path d="M114.066 104.64C113.581 104.375 113.175 103.969 112.896 103.468C112.613 102.949 112.467 102.358 112.476 101.758V95.2395H114.201V101.662C114.187 101.894 114.216 102.128 114.287 102.348C114.358 102.569 114.469 102.772 114.614 102.946C114.759 103.105 114.933 103.228 115.126 103.308C115.319 103.389 115.526 103.424 115.732 103.412C115.94 103.422 116.147 103.385 116.341 103.305C116.534 103.225 116.711 103.103 116.858 102.946C117.003 102.772 117.114 102.569 117.185 102.348C117.256 102.128 117.285 101.894 117.271 101.662V95.2395H119.011V101.758C119.021 102.359 118.873 102.952 118.584 103.468C118.302 103.967 117.897 104.373 117.413 104.64C116.894 104.925 116.316 105.069 115.732 105.057C115.153 105.068 114.581 104.924 114.066 104.64Z" fill="white"/>
<path d="M127.993 95.2395V104.969H126.268L122.921 98.8921V104.969H121.195V95.2395H122.921L126.268 101.332V95.2395H127.993Z" fill="white"/>
<path d="M134.98 103.082H131.858L131.303 104.969H129.487L132.713 95.2395H134.124L137.366 104.969H135.535L134.98 103.082ZM134.514 101.541L133.411 97.8083L132.316 101.541H134.514Z" fill="white"/>
<path d="M144.434 96.0584C144.707 96.3528 144.918 96.7049 145.055 97.0921C145.192 97.4792 145.251 97.8928 145.23 98.3061C145.247 98.7057 145.185 99.1047 145.048 99.4769C144.911 99.8491 144.702 100.186 144.434 100.466C143.833 101.028 143.049 101.317 142.251 101.268H140.577V104.961H138.829V95.2396H142.228C142.629 95.2114 143.03 95.2694 143.409 95.4101C143.788 95.5507 144.137 95.7711 144.434 96.0584ZM143.151 99.2694C143.272 99.1392 143.366 98.9833 143.427 98.8118C143.487 98.6403 143.514 98.4571 143.504 98.274C143.517 98.0778 143.493 97.8808 143.434 97.6947C143.375 97.5085 143.281 97.337 143.159 97.1903C143.026 97.0618 142.871 96.9629 142.702 96.8995C142.533 96.8361 142.354 96.8094 142.176 96.821H140.577V99.6226H142.176C142.528 99.6553 142.878 99.5402 143.151 99.3015V99.2694Z" fill="white"/>
<path d="M146.731 101.204V98.9803C146.731 96.3954 147.834 95.1029 150.04 95.1029C150.921 95.0541 151.784 95.3802 152.441 96.01C152.765 96.4176 153.01 96.8902 153.16 97.4003C153.311 97.9104 153.365 98.4476 153.319 98.9803V101.204C153.366 101.738 153.31 102.278 153.155 102.788C153.001 103.299 152.75 103.771 152.419 104.174C151.75 104.804 150.877 105.13 149.987 105.081C147.821 105.081 146.736 103.789 146.731 101.204ZM151.233 102.89C151.526 102.377 151.66 101.779 151.616 101.18V99.0766C151.662 98.4495 151.528 97.8224 151.233 97.2784C151.081 97.1043 150.898 96.9655 150.694 96.8706C150.49 96.7757 150.27 96.7268 150.047 96.7268C149.825 96.7268 149.605 96.7757 149.401 96.8706C149.197 96.9655 149.013 97.1043 148.862 97.2784C148.576 97.8289 148.448 98.457 148.494 99.0846V101.188C148.451 101.79 148.579 102.391 148.862 102.914C149.007 103.099 149.192 103.244 149.401 103.336C149.61 103.428 149.837 103.465 150.062 103.444C150.281 103.456 150.499 103.412 150.699 103.316C150.899 103.219 151.074 103.073 151.21 102.89H151.233Z" fill="white"/>
<path d="M155.285 95.2395H157.011V103.363H160.988V104.969H155.285V95.2395Z" fill="white"/>
<path d="M162.091 101.204V98.9803C162.091 96.3954 163.194 95.1029 165.4 95.1029C166.281 95.0541 167.144 95.3802 167.801 96.01C168.127 96.4169 168.373 96.8893 168.525 97.3994C168.677 97.9095 168.732 98.447 168.687 98.9803V101.204C168.733 101.739 168.676 102.279 168.52 102.789C168.364 103.3 168.112 103.771 167.779 104.174C167.11 104.804 166.238 105.13 165.348 105.081C163.177 105.081 162.091 103.789 162.091 101.204ZM166.593 102.89C166.883 102.376 167.014 101.778 166.969 101.18V99.0766C167.016 98.4504 166.885 97.8234 166.593 97.2784C166.44 97.1052 166.256 96.9672 166.052 96.8729C165.847 96.7785 165.627 96.7299 165.404 96.7299C165.181 96.7299 164.961 96.7785 164.756 96.8729C164.552 96.9672 164.367 97.1052 164.215 97.2784C163.929 97.8289 163.801 98.457 163.847 99.0846V101.188C163.804 101.79 163.932 102.391 164.215 102.914C164.36 103.099 164.546 103.243 164.755 103.335C164.963 103.427 165.19 103.465 165.415 103.444C165.639 103.461 165.863 103.419 166.068 103.322C166.274 103.226 166.454 103.077 166.593 102.89Z" fill="white"/>
<path d="M170.691 101.204V98.9801C170.691 96.3952 171.801 95.1028 174.022 95.1028C174.879 95.045 175.724 95.3313 176.393 95.9055C176.692 96.1981 176.927 96.558 177.08 96.9591C177.233 97.3603 177.301 97.7928 177.279 98.2255V98.3298H175.553V98.2255C175.558 98.0224 175.525 97.8204 175.455 97.6314C175.386 97.4424 175.281 97.2704 175.148 97.1257C174.996 96.9727 174.817 96.8551 174.62 96.7805C174.424 96.7059 174.215 96.6758 174.007 96.6922C173.781 96.6717 173.553 96.7107 173.344 96.8058C173.134 96.901 172.95 97.0494 172.807 97.2381C172.513 97.7852 172.382 98.4154 172.431 99.0443V101.148C172.385 101.754 172.524 102.36 172.829 102.873C172.984 103.059 173.177 103.203 173.394 103.295C173.61 103.387 173.843 103.424 174.075 103.403C174.286 103.424 174.499 103.395 174.698 103.319C174.898 103.243 175.079 103.121 175.23 102.962C175.497 102.582 175.625 102.111 175.591 101.637V101.172H173.985V99.6544H177.279V101.316C177.279 103.805 176.186 105.049 174 105.049C171.814 105.049 170.711 103.767 170.691 101.204Z" fill="white"/>
<path d="M180.971 96.853V99.2613H184.423V100.867H180.971V103.363H185.015V104.969H179.245V95.2395H185.015V96.845L180.971 96.853Z" fill="white"/>
<path d="M192.594 96.8531H190.268V104.969H188.535V96.8531H186.216V95.2476H192.594V96.8531Z" fill="white"/>
<path d="M194.185 95.2395H195.911V104.969H194.185V95.2395Z" fill="white"/>
<path d="M198.11 101.204V98.9802C198.11 96.3953 199.22 95.1029 201.441 95.1029C202.303 95.0548 203.149 95.3558 203.813 95.9458C204.117 96.2522 204.355 96.6271 204.508 97.0436C204.661 97.46 204.726 97.9076 204.698 98.354V98.4102H202.972V98.33C202.988 98.1107 202.958 97.8906 202.885 97.685C202.812 97.4794 202.698 97.2935 202.55 97.1404C202.403 96.9872 202.226 96.8706 202.032 96.7987C201.837 96.7268 201.631 96.7015 201.426 96.7244C201.2 96.7039 200.972 96.743 200.763 96.8381C200.553 96.9332 200.369 97.0816 200.226 97.2703C199.932 97.8175 199.801 98.4476 199.851 99.0765V101.18C199.805 101.781 199.939 102.383 200.233 102.898C200.383 103.085 200.571 103.231 200.784 103.325C200.997 103.418 201.227 103.456 201.456 103.436C201.661 103.451 201.867 103.421 202.06 103.348C202.254 103.274 202.431 103.16 202.582 103.01C202.717 102.856 202.821 102.674 202.888 102.475C202.955 102.276 202.984 102.065 202.972 101.854V101.742H204.668V101.838C204.695 102.282 204.632 102.727 204.483 103.143C204.334 103.559 204.103 103.935 203.805 104.246C203.13 104.822 202.28 105.108 201.419 105.049C199.213 105.07 198.11 103.789 198.11 101.204Z" fill="white"/>
<path d="M194.185 110.147H194.125C194.07 110.138 194.015 110.138 193.96 110.147C193.917 110.143 193.875 110.143 193.832 110.147L101.76 107.931H101.677C101.478 107.931 101.287 108.015 101.147 108.166C101.006 108.317 100.927 108.521 100.927 108.734V127.197C100.927 127.41 101.006 127.614 101.147 127.765C101.287 127.915 101.478 128 101.677 128L193.975 125.592C194.174 125.592 194.365 125.507 194.506 125.356C194.646 125.206 194.725 125.002 194.725 124.789V110.925C194.727 110.75 194.675 110.579 194.578 110.439C194.48 110.298 194.342 110.196 194.185 110.147Z" fill="#8D7E35"/>
<path d="M114.111 120.896H110.96L110.404 122.782H108.581L111.815 113.053H113.226L116.468 122.782H114.637L114.111 120.896ZM113.646 119.354L112.543 115.622L111.447 119.354H113.646Z" fill="white"/>
<path d="M119.709 114.658V117.155H123.176V118.76H119.709V122.774H117.983V113.053H123.754V114.658H119.709Z" fill="white"/>
<path d="M128.474 118.832H127.183V122.782H125.457V113.053H128.909C129.687 113.015 130.449 113.303 131.033 113.855C131.301 114.131 131.51 114.465 131.646 114.835C131.782 115.205 131.842 115.602 131.82 115.999C131.835 116.566 131.692 117.125 131.408 117.604C131.117 118.056 130.699 118.396 130.215 118.576L132.188 122.806H130.2L128.474 118.832ZM127.183 117.299H128.819C129.161 117.318 129.498 117.194 129.757 116.954C129.874 116.822 129.965 116.666 130.023 116.494C130.082 116.323 130.106 116.14 130.095 115.959C130.102 115.784 130.075 115.609 130.016 115.446C129.956 115.283 129.866 115.135 129.749 115.011C129.495 114.766 129.161 114.639 128.819 114.658H127.183V117.299Z" fill="white"/>
<path d="M133.967 113.053H135.722V122.782H133.997L133.967 113.053Z" fill="white"/>
<path d="M137.869 119.017V116.801C137.869 114.216 138.979 112.924 141.2 112.924C142.062 112.874 142.909 113.175 143.571 113.767C143.877 114.073 144.115 114.448 144.268 114.864C144.421 115.281 144.485 115.729 144.457 116.175V116.272H142.731V116.183C142.741 115.967 142.711 115.752 142.641 115.549C142.571 115.346 142.464 115.161 142.326 115.003C142.175 114.849 141.996 114.73 141.799 114.654C141.603 114.578 141.394 114.546 141.185 114.562C140.958 114.541 140.729 114.58 140.52 114.677C140.31 114.774 140.126 114.924 139.985 115.116C139.691 115.663 139.56 116.293 139.609 116.922V119.017C139.562 119.622 139.699 120.228 140 120.743C140.149 120.928 140.336 121.072 140.548 121.164C140.759 121.257 140.988 121.294 141.215 121.273C141.42 121.289 141.625 121.26 141.818 121.189C142.012 121.117 142.19 121.003 142.341 120.855C142.476 120.701 142.58 120.519 142.647 120.32C142.714 120.121 142.743 119.91 142.731 119.699V119.587H144.427V119.683C144.456 120.128 144.393 120.573 144.244 120.989C144.095 121.405 143.863 121.782 143.564 122.092C142.896 122.684 142.044 122.985 141.178 122.934C138.972 122.908 137.869 121.602 137.869 119.017Z" fill="white"/>
<path d="M150.925 120.896H147.804L147.248 122.782H145.432L148.659 113.053H150.07L153.311 122.782H151.48L150.925 120.896ZM150.467 119.354L149.357 115.622L148.269 119.354H150.467Z" fill="white"/>
<path d="M160.268 113.053H161.986V121.177H165.971V122.782H160.26L160.268 113.053Z" fill="white"/>
<path d="M169.49 114.658V117.067H172.942V118.672H169.49V121.169H173.534V122.774H167.764V113.053H173.534V114.658H169.49Z" fill="white"/>
<path d="M175.395 113.053H178.6C179.035 113.028 179.47 113.095 179.881 113.251C180.292 113.406 180.67 113.647 180.993 113.96C181.319 114.363 181.564 114.833 181.715 115.341C181.866 115.848 181.919 116.384 181.871 116.914V118.905C181.918 119.439 181.862 119.979 181.708 120.489C181.553 121 181.302 121.472 180.971 121.875C180.305 122.505 179.435 122.831 178.547 122.782H175.395V113.053ZM178.585 121.177C178.807 121.192 179.03 121.15 179.233 121.054C179.437 120.957 179.616 120.809 179.755 120.623C180.048 120.101 180.182 119.495 180.138 118.889V117.018C180.185 116.391 180.051 115.764 179.755 115.22C179.62 115.028 179.442 114.876 179.237 114.778C179.033 114.68 178.808 114.638 178.585 114.658H177.121V121.177H178.585Z" fill="white"/>
</svg>
