<svg width="343" height="164" viewBox="0 0 343 164" fill="none" xmlns="http://www.w3.org/2000/svg">
<path d="M53.33 76.82C61.9843 76.82 69 69.8043 69 61.15C69 52.4957 61.9843 45.48 53.33 45.48C44.6757 45.48 37.66 52.4957 37.66 61.15C37.66 69.8043 44.6757 76.82 53.33 76.82Z" fill="#FF5F00"/>
<path d="M49.33 43.9901C49.33 48.9101 45.34 52.8901 40.43 52.8901C35.51 52.8901 31.53 48.9001 31.53 43.9901C31.53 39.0701 35.52 35.0901 40.43 35.0901C45.34 35.0901 49.33 39.0701 49.33 43.9901Z" fill="#F5A800"/>
<path d="M82.59 71.4801C82.59 77.1901 77.96 81.8102 72.26 81.8102C66.55 81.8102 61.93 77.1801 61.93 71.4801C61.93 65.7701 66.56 61.1501 72.26 61.1501C77.96 61.1501 82.59 65.7801 82.59 71.4801Z" fill="#FFDD00"/>
<path d="M63.72 4.96021C79.99 4.96021 91.76 10.1202 102.71 19.9502C104.16 21.2402 104.16 23.1702 102.87 24.4602L93.04 34.6102C91.91 35.9002 90.3 35.9002 89.01 34.6102C82.24 28.6502 73.22 25.1002 64.2 25.1002C43.57 25.1002 28.27 42.3402 28.27 62.6402C28.27 82.7802 43.74 99.8602 64.36 99.8602C74.03 99.8602 82.25 96.1502 89.01 90.6802C90.3 89.5502 92.07 89.7102 93.04 90.6802L103.03 100.99C104.32 102.12 104 104.21 102.87 105.34C91.91 115.97 78.05 120.97 63.71 120.97C31.48 120.97 5.54004 95.3502 5.54004 63.1202C5.55004 30.9002 31.49 4.96021 63.72 4.96021Z" fill="#443635"/>
<path d="M64.74 29.1401C64.74 33.3101 61.36 36.6801 57.2 36.6801C53.03 36.6801 49.66 33.3001 49.66 29.1401C49.66 24.9701 53.04 21.6001 57.2 21.6001C61.37 21.6001 64.74 24.9801 64.74 29.1401Z" fill="#8D7E35"/>
<path d="M25.85 37.5001C25.85 41.0201 22.99 43.8801 19.47 43.8801C15.95 43.8801 13.09 41.0201 13.09 37.5001C13.09 33.9801 15.95 31.1201 19.47 31.1201C23 31.1201 25.85 33.9801 25.85 37.5001Z" fill="#FFDD00"/>
<path d="M76.46 17.97C76.46 20.01 74.8 21.66 72.77 21.66C70.73 21.66 69.08 20.01 69.08 17.97C69.08 15.93 70.73 14.28 72.77 14.28C74.8 14.28 76.46 15.93 76.46 17.97Z" fill="#FFDD00"/>
<path d="M61.09 23.5901C61.09 26.1901 58.98 28.3001 56.38 28.3001C53.78 28.3001 51.67 26.1901 51.67 23.5901C51.67 20.9901 53.78 18.8801 56.38 18.8801C58.99 18.8801 61.09 20.9901 61.09 23.5901Z" fill="#F5A800"/>
<path d="M47.16 90.2802C47.16 94.6102 43.65 98.1302 39.31 98.1302C34.98 98.1302 31.46 94.6202 31.46 90.2802C31.46 85.9402 34.97 82.4302 39.31 82.4302C43.65 82.4302 47.16 85.9402 47.16 90.2802Z" fill="#91813E"/>
<path d="M72.77 120.3C72.77 122.34 71.12 123.99 69.08 123.99C67.04 123.99 65.39 122.34 65.39 120.3C65.39 118.26 67.04 116.61 69.08 116.61C71.11 116.61 72.77 118.26 72.77 120.3Z" fill="#8D7E35"/>
<path d="M27.83 72.1501C29.2936 72.1501 30.48 70.9636 30.48 69.5001C30.48 68.0365 29.2936 66.8501 27.83 66.8501C26.3664 66.8501 25.18 68.0365 25.18 69.5001C25.18 70.9636 26.3664 72.1501 27.83 72.1501Z" fill="#8D7E35"/>
<path d="M9.25001 63.89C9.25001 66.44 7.18001 68.52 4.63 68.52C2.08 68.52 0.0100098 66.45 0.0100098 63.89C0.0100098 61.34 2.08 59.27 4.63 59.27C7.18001 59.27 9.25001 61.34 9.25001 63.89Z" fill="#8D7E35"/>
<path d="M72.35 100.68C72.35 102.83 70.6 104.58 68.45 104.58C66.3 104.58 64.55 102.83 64.55 100.68C64.55 98.53 66.3 96.78 68.45 96.78C70.6 96.78 72.35 98.53 72.35 100.68Z" fill="#FF5F00"/>
<path d="M16.53 32.36C16.53 34.74 14.6 36.6701 12.22 36.6701C9.84003 36.6701 7.91003 34.74 7.91003 32.36C7.91003 29.98 9.84003 28.05 12.22 28.05C14.6 28.05 16.53 29.98 16.53 32.36Z" fill="#FF5F00"/>
<path d="M40.67 14.2802C40.67 16.8202 38.61 18.8802 36.07 18.8802C33.53 18.8802 31.47 16.8202 31.47 14.2802C31.47 11.7402 33.53 9.68018 36.07 9.68018C38.61 9.68018 40.67 11.7402 40.67 14.2802Z" fill="#FF5F00"/>
<path d="M16.07 63.89C16.07 66.01 14.35 67.74 12.22 67.74C10.09 67.74 8.37 66.02 8.37 63.89C8.37 61.76 10.09 60.04 12.22 60.04C14.34 60.04 16.07 61.76 16.07 63.89Z" fill="#F5A800"/>
<path d="M58.2 90.1101C60.4092 90.1101 62.2 88.3192 62.2 86.1101C62.2 83.901 60.4092 82.1101 58.2 82.1101C55.9909 82.1101 54.2 83.901 54.2 86.1101C54.2 88.3192 55.9909 90.1101 58.2 90.1101Z" fill="#F5A800"/>
<path d="M34.34 94.7602C34.34 96.8902 32.61 98.6202 30.48 98.6202C28.35 98.6202 26.62 96.8902 26.62 94.7602C26.62 92.6302 28.35 90.9001 30.48 90.9001C32.61 90.9001 34.34 92.6302 34.34 94.7602Z" fill="#00C4B3"/>
<path d="M34.25 28.2001C34.25 30.0301 32.77 31.5101 30.94 31.5101C29.11 31.5101 27.63 30.0301 27.63 28.2001C27.63 26.3701 29.11 24.8901 30.94 24.8901C32.76 24.8901 34.25 26.3701 34.25 28.2001Z" fill="#00C4B3"/>
<path d="M67.33 4.15009C67.33 5.98009 65.85 7.46009 64.02 7.46009C62.19 7.46009 60.71 5.98009 60.71 4.15009C60.71 2.32009 62.19 0.840088 64.02 0.840088C65.84 0.840088 67.33 2.32009 67.33 4.15009Z" fill="#00C4B3"/>
<path d="M91.87 117.1C94.1841 117.1 96.06 115.224 96.06 112.91C96.06 110.596 94.1841 108.72 91.87 108.72C89.5559 108.72 87.68 110.596 87.68 112.91C87.68 115.224 89.5559 117.1 91.87 117.1Z" fill="#00C4B3"/>
<path d="M18.49 87.7302C18.55 90.7202 16.18 93.2002 13.18 93.2602C10.19 93.3202 7.71004 90.9402 7.65004 87.9502C7.59004 84.9602 9.96005 82.4802 12.96 82.4202C15.95 82.3702 18.42 84.7402 18.49 87.7302Z" fill="#00C4B3"/>
<path d="M49.87 95.1601C49.87 96.8501 48.5 98.2101 46.82 98.2101C45.14 98.2101 43.77 96.8501 43.77 95.1601C43.77 93.4801 45.14 92.1101 46.82 92.1101C48.5 92.1101 49.87 93.4801 49.87 95.1601Z" fill="#CDDE00"/>
<path d="M35.65 112.29C35.65 114.26 34.05 115.86 32.08 115.86C30.11 115.86 28.51 114.26 28.51 112.29C28.51 110.32 30.11 108.72 32.08 108.72C34.05 108.73 35.65 110.32 35.65 112.29Z" fill="#FF5F00"/>
<path d="M77.9 32.36C77.9 34.48 76.18 36.21 74.05 36.21C71.93 36.21 70.2 34.49 70.2 32.36C70.2 30.23 71.92 28.51 74.05 28.51C76.18 28.51 77.9 30.24 77.9 32.36Z" fill="#00C4B3"/>
<path d="M54.6 111.67C54.6 113.73 52.93 115.4 50.87 115.4C48.81 115.4 47.14 113.73 47.14 111.67C47.14 109.61 48.81 107.94 50.87 107.94C52.93 107.94 54.6 109.61 54.6 111.67Z" fill="#FFDD00"/>
<path d="M81.92 93.95C81.92 97.67 78.91 100.68 75.19 100.68C71.47 100.68 68.46 97.66 68.46 93.95C68.46 90.23 71.47 87.21 75.19 87.21C78.9 87.21 81.92 90.23 81.92 93.95Z" fill="#CDDE00"/>
<path d="M35.1 9.68004C35.1 11.69 33.47 13.32 31.46 13.32C29.45 13.32 27.82 11.69 27.82 9.68004C27.82 7.67004 29.45 6.04004 31.46 6.04004C33.47 6.04004 35.1 7.67004 35.1 9.68004Z" fill="#CDDE00"/>
<path d="M97.8 13.5401C97.8 15.8501 95.93 17.7301 93.61 17.7301C91.29 17.7301 89.42 15.8601 89.42 13.5401C89.42 11.2301 91.29 9.3501 93.61 9.3501C95.93 9.3501 97.8 11.2301 97.8 13.5401Z" fill="#CDDE00"/>
<path d="M13.37 93.04C13.37 94.85 11.91 96.31 10.1 96.31C8.29002 96.31 6.83002 94.85 6.83002 93.04C6.83002 91.23 8.29002 89.77 10.1 89.77C11.9 89.77 13.37 91.23 13.37 93.04Z" fill="#CDDE00"/>
<path d="M96.04 77.2202L110.35 46.4602C110.49 46.1902 110.81 45.9602 111.13 45.9602H111.59C111.91 45.9602 112.23 46.1902 112.37 46.4602L126.68 77.2202C126.95 77.8102 126.59 78.4102 125.9 78.4102H120.83C120.01 78.4102 119.64 78.1402 119.23 77.2702L117.59 73.6602H105.16L103.52 77.3202C103.29 77.8702 102.79 78.4202 101.87 78.4202H96.84C96.13 78.4102 95.76 77.8202 96.04 77.2202ZM114.82 67.4402L111.35 59.9002H111.3L107.87 67.4402H114.82Z" fill="#3C3031"/>
<path d="M139.07 53.1402H130.9C130.4 53.1402 130.03 52.7302 130.03 52.2702V47.2902C130.03 46.8302 130.4 46.4202 130.9 46.4202H154.45C154.95 46.4202 155.32 46.8302 155.32 47.2902V52.2702C155.32 52.7302 154.95 53.1402 154.45 53.1402H146.28V77.5502C146.28 78.0102 145.87 78.4202 145.41 78.4202H139.93C139.47 78.4202 139.06 78.0102 139.06 77.5502V53.1402H139.07Z" fill="#3C3031"/>
<path d="M158.71 77.2202L173.02 46.4602C173.16 46.1902 173.48 45.9602 173.8 45.9602H174.26C174.58 45.9602 174.9 46.1902 175.04 46.4602L189.35 77.2202C189.62 77.8102 189.26 78.4102 188.57 78.4102H183.5C182.68 78.4102 182.31 78.1402 181.9 77.2702L180.26 73.6602H167.8L166.16 77.3202C165.93 77.8702 165.43 78.4202 164.51 78.4202H159.48C158.8 78.4102 158.43 77.8202 158.71 77.2202ZM177.49 67.4402L174.02 59.9002H173.97L170.54 67.4402H177.49Z" fill="#3C3031"/>
<path d="M197.64 47.2902C197.64 46.8302 198.01 46.4202 198.51 46.4202H203.95C204.41 46.4202 204.82 46.8302 204.82 47.2902V71.7002H217.33C217.83 71.7002 218.2 72.1102 218.2 72.5702V77.5502C218.2 78.0102 217.83 78.4202 217.33 78.4202H198.52C198.02 78.4202 197.65 78.0102 197.65 77.5502V47.2902H197.64Z" fill="#3C3031"/>
<path d="M231.71 63.0102L221.61 47.7502C221.24 47.1502 221.61 46.4202 222.34 46.4202H228.28C228.65 46.4202 228.87 46.6502 229.01 46.8302L235.36 56.2002L241.71 46.8302C241.85 46.6502 242.03 46.4202 242.44 46.4202H248.38C249.11 46.4202 249.48 47.1502 249.11 47.7502L238.87 62.9702V77.5502C238.87 78.0102 238.46 78.4202 238 78.4202H232.56C232.06 78.4202 231.69 78.0102 231.69 77.5502V63.0102H231.71Z" fill="#3C3031"/>
<path d="M257.15 74.0702L259.3 70.2802C259.67 69.6902 260.53 69.7802 260.85 70.0102C261.03 70.1002 264.32 72.5202 267.34 72.5202C269.17 72.5202 270.49 71.3802 270.49 69.7802C270.49 67.8602 268.89 66.4002 265.78 65.1602C261.85 63.6102 256.91 60.5402 256.91 55.0602C256.91 50.5302 260.43 45.9602 267.47 45.9602C272.22 45.9602 275.88 48.3802 277.25 49.3902C277.8 49.7102 277.71 50.5302 277.52 50.8502L275.19 54.3702C274.87 54.8702 274.05 55.2802 273.64 54.9602C273.23 54.7302 269.89 52.2202 267.1 52.2202C265.46 52.2202 264.22 53.3202 264.22 54.5502C264.22 56.2402 265.59 57.5202 269.2 58.9802C272.77 60.4002 278.43 63.1802 278.43 69.4002C278.43 74.1102 274.36 78.8602 267.64 78.8602C261.7 78.8602 258.41 76.3902 257.36 75.3402C256.92 74.8902 256.79 74.7102 257.15 74.0702Z" fill="#3C3031"/>
<path d="M295.97 53.1402H287.8C287.3 53.1402 286.93 52.7302 286.93 52.2702V47.2902C286.93 46.8302 287.3 46.4202 287.8 46.4202H311.35C311.85 46.4202 312.22 46.8302 312.22 47.2902V52.2702C312.22 52.7302 311.85 53.1402 311.35 53.1402H303.18V77.5502C303.18 78.0102 302.77 78.4202 302.31 78.4202H296.83C296.37 78.4202 295.96 78.0102 295.96 77.5502V53.1402H295.97Z" fill="#3C3031"/>
<path d="M321.16 74.0702L323.31 70.2802C323.68 69.6902 324.54 69.7802 324.86 70.0102C325.04 70.1002 328.33 72.5202 331.35 72.5202C333.18 72.5202 334.5 71.3802 334.5 69.7802C334.5 67.8602 332.9 66.4002 329.79 65.1602C325.86 63.6102 320.92 60.5402 320.92 55.0602C320.92 50.5302 324.44 45.9602 331.48 45.9602C336.23 45.9602 339.89 48.3802 341.26 49.3902C341.81 49.7102 341.72 50.5302 341.53 50.8502L339.2 54.3702C338.88 54.8702 338.06 55.2802 337.65 54.9602C337.24 54.7302 333.9 52.2202 331.11 52.2202C329.47 52.2202 328.23 53.3202 328.23 54.5502C328.23 56.2402 329.6 57.5202 333.21 58.9802C336.78 60.4002 342.44 63.1802 342.44 69.4002C342.44 74.1102 338.37 78.8602 331.65 78.8602C325.71 78.8602 322.42 76.3902 321.37 75.3402C320.94 74.8902 320.8 74.7102 321.16 74.0702Z" fill="#3C3031"/>
<path d="M296.19 115.54L143.24 117.19C142.56 117.19 142.01 117.73 142.01 118.41V138.93C142.01 139.61 142.56 140.15 143.24 140.15C143.34 140.15 143.44 140.13 143.54 140.11L296.02 143.38L296.04 143.36C296.09 143.37 296.14 143.38 296.19 143.38C296.87 143.38 297.42 142.83 297.42 142.16V116.76C297.42 116.09 296.87 115.54 296.19 115.54Z" fill="#00C4B3"/>
<path d="M262.91 141.26L262.9 141.24H262.83C262.76 141.22 262.69 141.2 262.62 141.2C262.56 141.2 262.51 141.22 262.45 141.23L139.75 138.47L139.72 138.49C139.68 138.49 139.65 138.47 139.61 138.47C139.04 138.47 138.57 138.93 138.57 139.5V162.5C138.57 163.07 139.03 163.53 139.61 163.53L262.62 160.56C263.19 160.56 263.66 160.1 263.66 159.53V142.23C263.65 141.77 263.34 141.39 262.91 141.26Z" fill="#8D7E35"/>
<path d="M201.3 97.7002C201.21 97.7002 201.12 97.7102 201.03 97.7302L138.73 95.2002L138.71 95.2202C138.66 95.2102 138.61 95.2002 138.56 95.2002C137.86 95.2002 137.3 95.7602 137.3 96.4502V119.24C137.3 119.93 137.86 120.49 138.56 120.49L201.29 117.99C201.99 117.99 202.55 117.43 202.55 116.74V98.9502C202.56 98.2602 201.99 97.7002 201.3 97.7002Z" fill="#FF5F00"/>
<path d="M158 109.28C158.29 109.75 158.43 110.31 158.43 110.97C158.43 112.07 158.1 112.93 157.45 113.53C156.79 114.14 155.88 114.44 154.71 114.44H149.85V102.32H154.52C155.7 102.32 156.62 102.61 157.29 103.2C157.95 103.79 158.28 104.62 158.28 105.69C158.28 106.23 158.15 106.72 157.88 107.17C157.61 107.62 157.24 107.96 156.76 108.2C157.29 108.46 157.71 108.81 158 109.28ZM152.14 104.33V107.28H154.33C154.86 107.28 155.26 107.15 155.53 106.9C155.8 106.65 155.94 106.29 155.94 105.84C155.94 105.35 155.8 104.97 155.53 104.72C155.25 104.46 154.85 104.33 154.33 104.33H152.14ZM155.71 112.01C155.98 111.72 156.12 111.32 156.12 110.81C156.12 110.33 155.98 109.96 155.71 109.69C155.43 109.42 155.02 109.29 154.47 109.29H152.13V112.45H154.47C155.03 112.44 155.44 112.3 155.71 112.01Z" fill="white"/>
<path d="M161.06 109.76V106.99C161.06 103.77 162.53 102.16 165.47 102.16C166.82 102.16 167.88 102.54 168.67 103.29C169.45 104.04 169.85 105.28 169.85 106.99V109.76C169.85 111.47 169.45 112.7 168.65 113.46C167.85 114.21 166.77 114.59 165.41 114.59C162.51 114.59 161.06 112.98 161.06 109.76ZM167.03 111.86C167.37 111.41 167.54 110.7 167.54 109.73V107.11C167.54 106.08 167.37 105.33 167.03 104.87C166.69 104.41 166.17 104.18 165.47 104.18C164.73 104.18 164.2 104.41 163.87 104.86C163.54 105.31 163.38 106.06 163.38 107.12V109.74C163.38 110.74 163.54 111.45 163.87 111.89C164.2 112.33 164.73 112.55 165.47 112.55C166.17 112.53 166.69 112.31 167.03 111.86Z" fill="white"/>
<path d="M172.46 102.33H174.76V112.45H180.06V114.45H172.46V102.33Z" fill="white"/>
<path d="M182.4 102.33H186.67C188.02 102.33 189.08 102.7 189.86 103.45C190.64 104.2 191.03 105.43 191.03 107.14V109.62C191.03 111.33 190.63 112.56 189.84 113.32C189.04 114.08 187.97 114.45 186.61 114.45H182.41L182.4 102.33ZM186.65 112.44C187.34 112.44 187.86 112.21 188.2 111.76C188.55 111.3 188.72 110.58 188.72 109.6V107.26C188.72 106.23 188.55 105.48 188.21 105.02C187.87 104.56 187.35 104.33 186.65 104.33H184.7V112.44H186.65Z" fill="white"/>
<path d="M151.96 135.31C151.3 134.96 150.78 134.48 150.41 133.85C150.03 133.22 149.85 132.51 149.85 131.72V123.61H152.15V131.65C152.15 132.34 152.33 132.88 152.69 133.26C153.05 133.64 153.55 133.83 154.18 133.83C154.81 133.83 155.31 133.64 155.68 133.26C156.05 132.88 156.23 132.34 156.23 131.65V123.61H158.55V131.72C158.55 132.52 158.36 133.23 157.98 133.85C157.6 134.48 157.08 134.96 156.42 135.31C155.76 135.66 155.01 135.83 154.18 135.83C153.36 135.83 152.62 135.66 151.96 135.31Z" fill="white"/>
<path d="M170.56 123.6V135.72H168.26L163.8 128.15V135.72H161.5V123.6H163.8L168.26 131.19V123.6H170.56Z" fill="white"/>
<path d="M179.87 133.37H175.71L174.97 135.72H172.55L176.85 123.6H178.73L183.05 135.72H180.61L179.87 133.37ZM179.25 131.45L177.77 126.8L176.31 131.45H179.25Z" fill="white"/>
<path d="M192.47 124.62C193.18 125.3 193.53 126.23 193.53 127.41C193.53 128.53 193.18 129.43 192.47 130.11C191.76 130.78 190.79 131.12 189.56 131.12H187.33V135.72H185.03V123.6H189.56C190.79 123.6 191.76 123.94 192.47 124.62ZM190.76 128.66C191.08 128.37 191.23 127.95 191.23 127.41C191.23 126.82 191.07 126.38 190.76 126.07C190.45 125.76 190.01 125.61 189.45 125.61H187.33V129.1H189.45C190.01 129.1 190.44 128.96 190.76 128.66Z" fill="white"/>
<path d="M195.53 131.03V128.26C195.53 125.04 197 123.43 199.94 123.43C201.29 123.43 202.35 123.81 203.14 124.56C203.92 125.31 204.32 126.55 204.32 128.26V131.03C204.32 132.74 203.92 133.97 203.12 134.73C202.32 135.48 201.24 135.86 199.88 135.86C196.98 135.86 195.53 134.25 195.53 131.03ZM201.5 133.13C201.84 132.68 202.01 131.97 202.01 131V128.38C202.01 127.35 201.84 126.6 201.5 126.14C201.16 125.68 200.64 125.45 199.94 125.45C199.2 125.45 198.67 125.68 198.34 126.13C198.01 126.58 197.85 127.33 197.85 128.39V131.01C197.85 132.01 198.01 132.72 198.34 133.16C198.67 133.6 199.2 133.82 199.94 133.82C200.64 133.81 201.16 133.58 201.5 133.13Z" fill="white"/>
<path d="M206.93 123.6H209.23V133.72H214.53V135.72H206.93V123.6Z" fill="white"/>
<path d="M216.04 131.03V128.26C216.04 125.04 217.51 123.43 220.45 123.43C221.8 123.43 222.86 123.81 223.65 124.56C224.43 125.31 224.83 126.55 224.83 128.26V131.03C224.83 132.74 224.43 133.97 223.63 134.73C222.83 135.48 221.75 135.86 220.39 135.86C217.49 135.86 216.04 134.25 216.04 131.03ZM222.02 133.13C222.36 132.68 222.53 131.97 222.53 131V128.38C222.53 127.35 222.36 126.6 222.02 126.14C221.68 125.68 221.16 125.45 220.46 125.45C219.72 125.45 219.19 125.68 218.86 126.13C218.53 126.58 218.37 127.33 218.37 128.39V131.01C218.37 132.01 218.53 132.72 218.86 133.16C219.19 133.6 219.72 133.82 220.46 133.82C221.16 133.81 221.68 133.58 222.02 133.13Z" fill="white"/>
<path d="M227.46 131.03V128.26C227.46 125.04 228.94 123.43 231.9 123.43C233.22 123.43 234.28 123.78 235.06 124.47C235.84 125.17 236.24 126.13 236.24 127.36V127.48H233.94V127.36C233.94 126.81 233.76 126.35 233.4 125.99C233.04 125.63 232.54 125.45 231.88 125.45C231.14 125.45 230.61 125.68 230.27 126.14C229.94 126.6 229.77 127.35 229.77 128.39V131.01C229.77 132.01 229.95 132.72 230.31 133.16C230.67 133.6 231.22 133.82 231.97 133.82C232.67 133.82 233.18 133.64 233.51 133.28C233.83 132.92 233.99 132.37 233.99 131.63V131.05H231.85V129.15H236.24V131.22C236.24 134.32 234.78 135.87 231.87 135.87C228.93 135.86 227.46 134.25 227.46 131.03Z" fill="white"/>
<path d="M241.16 125.61V128.61H245.76V130.61H241.16V133.72H246.55V135.72H238.86V123.6H246.55V125.6L241.16 125.61Z" fill="white"/>
<path d="M256.65 125.61H253.56V135.73H251.24V125.61H248.15V123.61H256.65V125.61Z" fill="white"/>
<path d="M258.77 123.6H261.07V135.72H258.77V123.6Z" fill="white"/>
<path d="M263.97 131.03V128.26C263.97 125.04 265.45 123.43 268.41 123.43C269.73 123.43 270.79 123.78 271.57 124.48C272.35 125.18 272.75 126.17 272.75 127.45V127.57H270.45V127.46C270.45 126.84 270.27 126.35 269.91 125.98C269.55 125.62 269.05 125.44 268.39 125.44C267.65 125.44 267.12 125.67 266.78 126.13C266.45 126.59 266.28 127.34 266.28 128.38V131C266.28 131.98 266.45 132.7 266.8 133.14C267.15 133.59 267.69 133.81 268.42 133.81C269.08 133.81 269.58 133.63 269.92 133.28C270.26 132.93 270.44 132.45 270.44 131.84V131.7H272.71V131.82C272.71 133.12 272.32 134.12 271.55 134.81C270.78 135.51 269.72 135.85 268.37 135.85C265.44 135.86 263.97 134.25 263.97 131.03Z" fill="white"/>
<path d="M156.2 154.65H152.04L151.3 157H148.88L153.18 144.88H155.06L159.38 157H156.94L156.2 154.65ZM155.58 152.73L154.1 148.08L152.64 152.73H155.58Z" fill="white"/>
<path d="M163.66 146.88V149.99H168.28V151.99H163.66V156.99H161.36V144.87H169.05V146.87L163.66 146.88Z" fill="white"/>
<path d="M175.34 152.08H173.62V157H171.32V144.88H175.92C177.1 144.88 178.04 145.2 178.75 145.86C179.45 146.51 179.8 147.39 179.8 148.5C179.8 149.3 179.62 149.97 179.25 150.52C178.88 151.07 178.35 151.47 177.66 151.73L180.29 157H177.64L175.34 152.08ZM173.62 150.17H175.8C176.34 150.17 176.76 150.03 177.06 149.74C177.36 149.45 177.51 149.04 177.51 148.5C177.51 148.01 177.36 147.62 177.05 147.32C176.75 147.03 176.33 146.88 175.8 146.88H173.62V150.17Z" fill="white"/>
<path d="M182.66 144.88H184.96V157H182.66V144.88Z" fill="white"/>
<path d="M187.86 152.31V149.54C187.86 146.32 189.34 144.71 192.3 144.71C193.62 144.71 194.68 145.06 195.46 145.76C196.24 146.46 196.64 147.45 196.64 148.73V148.85H194.34V148.74C194.34 148.12 194.16 147.63 193.8 147.26C193.44 146.9 192.94 146.72 192.28 146.72C191.54 146.72 191.01 146.95 190.67 147.41C190.34 147.87 190.17 148.62 190.17 149.66V152.28C190.17 153.26 190.34 153.98 190.69 154.42C191.04 154.87 191.58 155.09 192.31 155.09C192.97 155.09 193.47 154.91 193.81 154.56C194.16 154.21 194.33 153.73 194.33 153.12V152.98H196.6V153.1C196.6 154.4 196.21 155.4 195.44 156.09C194.67 156.79 193.61 157.13 192.26 157.13C189.33 157.14 187.86 155.53 187.86 152.31Z" fill="white"/>
<path d="M205.26 154.65H201.1L200.36 157H197.94L202.24 144.88H204.12L208.44 157H206L205.26 154.65ZM204.65 152.73L203.17 148.08L201.71 152.73H204.65Z" fill="white"/>
<path d="M210.18 149.92H215.01V151.94H210.18V149.92Z" fill="white"/>
<path d="M217.71 144.88H220.01V155H225.31V157H217.71V144.88Z" fill="white"/>
<path d="M229.95 146.88V149.88H234.55V151.88H229.95V154.99H235.34V156.99H227.65V144.87H235.34V146.87L229.95 146.88Z" fill="white"/>
<path d="M237.87 144.88H242.14C243.49 144.88 244.55 145.25 245.33 146C246.11 146.75 246.5 147.98 246.5 149.69V152.17C246.5 153.88 246.1 155.11 245.31 155.87C244.51 156.63 243.44 157 242.08 157H237.88L237.87 144.88ZM242.12 155C242.81 155 243.33 154.77 243.67 154.32C244.02 153.86 244.19 153.14 244.19 152.16V149.82C244.19 148.79 244.02 148.04 243.68 147.58C243.34 147.12 242.82 146.89 242.12 146.89H240.17V155H242.12Z" fill="white"/>
</svg>
