<svg width="445" height="75" viewBox="0 0 445 75" fill="none" xmlns="http://www.w3.org/2000/svg">
<path d="M1.1499 1.46373L444.5 4.79516V65.204L1.1499 74.4894V1.46373Z" fill="#FFDD00" stroke="black"/>
<path d="M54.229 25.5625H61.0845V44.1367C61.0845 46.3503 60.6222 48.2253 59.6978 49.7617C58.7733 51.2852 57.4777 52.4375 55.811 53.2188C54.1444 54 52.1847 54.3906 49.9321 54.3906C47.7056 54.3906 45.7459 54 44.0532 53.2188C42.3735 52.4375 41.0584 51.2852 40.1079 49.7617C39.1704 48.2253 38.7017 46.3503 38.7017 44.1367V25.5625H45.5767V44.1367C45.5767 45.3086 45.7459 46.2656 46.0845 47.0078C46.423 47.737 46.9178 48.2708 47.5688 48.6094C48.2199 48.9479 49.0076 49.1172 49.9321 49.1172C50.8696 49.1172 51.6574 48.9479 52.2954 48.6094C52.9334 48.2708 53.4152 47.737 53.7407 47.0078C54.0662 46.2656 54.229 45.3086 54.229 44.1367V25.5625ZM76.7485 44.3516H69.6782V39.0586H76.7485C77.7121 39.0586 78.4933 38.8958 79.0923 38.5703C79.6912 38.2448 80.1274 37.7956 80.4009 37.2227C80.6873 36.6367 80.8306 35.9792 80.8306 35.25C80.8306 34.4688 80.6873 33.7461 80.4009 33.082C80.1274 32.418 79.6912 31.8841 79.0923 31.4805C78.4933 31.0638 77.7121 30.8555 76.7485 30.8555H72.2563V54H65.4009V25.5625H76.7485C79.0272 25.5625 80.9868 25.9792 82.6274 26.8125C84.2811 27.6458 85.5506 28.7917 86.436 30.25C87.3215 31.6953 87.7642 33.349 87.7642 35.2109C87.7642 37.0469 87.3215 38.6484 86.436 40.0156C85.5506 41.3828 84.2811 42.4505 82.6274 43.2188C80.9868 43.974 79.0272 44.3516 76.7485 44.3516ZM107.627 44.3711H114.463C114.372 46.3503 113.838 48.0951 112.862 49.6055C111.885 51.1159 110.531 52.2943 108.799 53.1406C107.081 53.974 105.049 54.3906 102.706 54.3906C100.805 54.3906 99.1053 54.0716 97.6079 53.4336C96.1235 52.7956 94.8605 51.8776 93.8188 50.6797C92.7902 49.4818 92.0024 48.0299 91.4556 46.3242C90.9217 44.6185 90.6548 42.6979 90.6548 40.5625V39.0195C90.6548 36.8841 90.9347 34.9635 91.4946 33.2578C92.0675 31.5391 92.8748 30.0807 93.9165 28.8828C94.9712 27.6719 96.2342 26.7474 97.7056 26.1094C99.1769 25.4714 100.811 25.1523 102.608 25.1523C105.082 25.1523 107.172 25.5951 108.877 26.4805C110.583 27.3659 111.905 28.5833 112.842 30.1328C113.78 31.6693 114.333 33.4206 114.502 35.3867H107.667C107.64 34.319 107.458 33.4271 107.12 32.7109C106.781 31.9818 106.247 31.4349 105.518 31.0703C104.789 30.7057 103.819 30.5234 102.608 30.5234C101.762 30.5234 101.026 30.6797 100.401 30.9922C99.7759 31.3047 99.255 31.7995 98.8384 32.4766C98.4217 33.1536 98.1092 34.0326 97.9009 35.1133C97.7056 36.181 97.6079 37.4701 97.6079 38.9805V40.5625C97.6079 42.0729 97.6991 43.362 97.8813 44.4297C98.0636 45.4974 98.3566 46.3698 98.7603 47.0469C99.1639 47.724 99.6847 48.2253 100.323 48.5508C100.974 48.8633 101.768 49.0195 102.706 49.0195C103.747 49.0195 104.626 48.8568 105.342 48.5312C106.058 48.1927 106.612 47.6849 107.002 47.0078C107.393 46.3177 107.601 45.4388 107.627 44.3711ZM141.768 39.2148V40.3672C141.768 42.5417 141.462 44.4948 140.85 46.2266C140.251 47.9453 139.398 49.4167 138.292 50.6406C137.185 51.8516 135.876 52.7826 134.366 53.4336C132.855 54.0716 131.189 54.3906 129.366 54.3906C127.53 54.3906 125.85 54.0716 124.327 53.4336C122.816 52.7826 121.501 51.8516 120.381 50.6406C119.275 49.4167 118.415 47.9453 117.803 46.2266C117.204 44.4948 116.905 42.5417 116.905 40.3672V39.2148C116.905 37.0404 117.204 35.0872 117.803 33.3555C118.415 31.6237 119.268 30.1523 120.362 28.9414C121.469 27.7174 122.777 26.7865 124.288 26.1484C125.811 25.4974 127.491 25.1719 129.327 25.1719C131.15 25.1719 132.816 25.4974 134.327 26.1484C135.85 26.7865 137.165 27.7174 138.272 28.9414C139.379 30.1523 140.238 31.6237 140.85 33.3555C141.462 35.0872 141.768 37.0404 141.768 39.2148ZM134.815 40.3672V39.1758C134.815 37.7695 134.691 36.5326 134.444 35.4648C134.209 34.3841 133.858 33.4792 133.389 32.75C132.92 32.0208 132.341 31.474 131.651 31.1094C130.974 30.7318 130.199 30.543 129.327 30.543C128.415 30.543 127.621 30.7318 126.944 31.1094C126.267 31.474 125.7 32.0208 125.245 32.75C124.789 33.4792 124.444 34.3841 124.209 35.4648C123.988 36.5326 123.877 37.7695 123.877 39.1758V40.3672C123.877 41.7604 123.988 42.9974 124.209 44.0781C124.444 45.1458 124.789 46.0508 125.245 46.793C125.713 47.5352 126.286 48.0951 126.963 48.4727C127.653 48.8503 128.454 49.0391 129.366 49.0391C130.238 49.0391 131.013 48.8503 131.69 48.4727C132.367 48.0951 132.933 47.5352 133.389 46.793C133.858 46.0508 134.209 45.1458 134.444 44.0781C134.691 42.9974 134.815 41.7604 134.815 40.3672ZM148.721 25.5625H154.307L160.655 45.3477L167.002 25.5625H172.588L162.92 54H158.389L148.721 25.5625ZM145.323 25.5625H151.104L152.178 47.3594V54H145.323V25.5625ZM170.206 25.5625H176.006V54H169.131V47.3594L170.206 25.5625ZM187.686 25.5625V54H180.85V25.5625H187.686ZM216.26 25.5625V54H209.424L199.366 36.3047V54H192.51V25.5625H199.366L209.424 43.2578V25.5625H216.26ZM243.858 38.8047V50.4844C243.376 51.0182 242.634 51.5911 241.631 52.2031C240.642 52.8021 239.392 53.3164 237.881 53.7461C236.371 54.1758 234.594 54.3906 232.549 54.3906C230.661 54.3906 228.949 54.0911 227.413 53.4922C225.876 52.8802 224.555 51.9883 223.448 50.8164C222.354 49.6315 221.508 48.1862 220.909 46.4805C220.323 44.7617 220.03 42.7956 220.03 40.582V39C220.03 36.7865 220.329 34.8203 220.928 33.1016C221.527 31.3828 222.367 29.9375 223.448 28.7656C224.542 27.5807 225.824 26.6823 227.295 26.0703C228.78 25.4583 230.407 25.1523 232.178 25.1523C234.795 25.1523 236.924 25.569 238.565 26.4023C240.206 27.2227 241.449 28.362 242.295 29.8203C243.142 31.2656 243.656 32.9388 243.838 34.8398H237.256C237.126 33.9023 236.879 33.1081 236.514 32.457C236.163 31.793 235.655 31.2917 234.991 30.9531C234.327 30.6016 233.467 30.4258 232.413 30.4258C231.592 30.4258 230.844 30.6016 230.167 30.9531C229.502 31.3047 228.936 31.8385 228.467 32.5547C227.999 33.2578 227.634 34.1432 227.374 35.2109C227.126 36.2786 227.002 37.5286 227.002 38.9609V40.582C227.002 42.0013 227.12 43.2448 227.354 44.3125C227.601 45.3802 227.966 46.2721 228.448 46.9883C228.943 47.6914 229.568 48.2253 230.323 48.5898C231.091 48.9414 231.996 49.1172 233.038 49.1172C233.767 49.1172 234.392 49.0586 234.913 48.9414C235.433 48.8112 235.863 48.6549 236.202 48.4727C236.553 48.2773 236.82 48.0951 237.002 47.9258V43.5117H232.237V38.8047H243.858ZM277.393 48.7266V54H262.237V48.7266H277.393ZM264.678 25.5625V54H257.823V25.5625H264.678ZM275.44 36.8516V41.9492H262.237V36.8516H275.44ZM277.452 25.5625V30.8555H262.237V25.5625H277.452ZM290.967 47.3008L296.885 25.5625H304.561L294.971 54H290.01L290.967 47.3008ZM285.596 25.5625L291.514 47.3008L292.51 54H287.491L277.959 25.5625H285.596ZM326.221 48.7266V54H311.065V48.7266H326.221ZM313.506 25.5625V54H306.651V25.5625H313.506ZM324.268 36.8516V41.9492H311.065V36.8516H324.268ZM326.28 25.5625V30.8555H311.065V25.5625H326.28ZM352.784 25.5625V54H345.948L335.889 36.3047V54H329.034V25.5625H335.889L345.948 43.2578V25.5625H352.784ZM370.303 25.5625V54H363.448V25.5625H370.303ZM378.858 25.5625V30.8555H355.088V25.5625H378.858ZM396.104 46.4414C396.104 45.9987 396.039 45.6016 395.909 45.25C395.778 44.8854 395.538 44.5469 395.186 44.2344C394.834 43.9219 394.327 43.6094 393.663 43.2969C393.012 42.9714 392.152 42.6328 391.084 42.2812C389.834 41.8646 388.63 41.3958 387.471 40.875C386.312 40.3411 385.277 39.7227 384.366 39.0195C383.454 38.3034 382.732 37.4701 382.198 36.5195C381.664 35.556 381.397 34.4362 381.397 33.1602C381.397 31.9362 381.67 30.8359 382.217 29.8594C382.764 28.8698 383.526 28.0299 384.502 27.3398C385.492 26.6367 386.651 26.1029 387.979 25.7383C389.307 25.3607 390.759 25.1719 392.334 25.1719C394.418 25.1719 396.254 25.5365 397.842 26.2656C399.444 26.9818 400.694 28.0039 401.592 29.332C402.504 30.6471 402.959 32.2031 402.959 34H396.143C396.143 33.2839 395.993 32.6523 395.694 32.1055C395.407 31.5586 394.971 31.1289 394.385 30.8164C393.799 30.5039 393.064 30.3477 392.178 30.3477C391.319 30.3477 390.596 30.4779 390.01 30.7383C389.424 30.9987 388.982 31.3503 388.682 31.793C388.383 32.2227 388.233 32.6979 388.233 33.2188C388.233 33.6484 388.35 34.0391 388.584 34.3906C388.832 34.7292 389.177 35.0482 389.62 35.3477C390.075 35.6471 390.622 35.9336 391.26 36.207C391.911 36.4805 392.64 36.7474 393.448 37.0078C394.958 37.4896 396.299 38.0299 397.471 38.6289C398.656 39.2148 399.652 39.8854 400.459 40.6406C401.28 41.3828 401.898 42.2292 402.315 43.1797C402.745 44.1302 402.959 45.2044 402.959 46.4023C402.959 47.6784 402.712 48.8112 402.217 49.8008C401.722 50.7904 401.013 51.6302 400.088 52.3203C399.164 52.9974 398.057 53.5117 396.768 53.8633C395.479 54.2148 394.04 54.3906 392.452 54.3906C390.993 54.3906 389.555 54.2083 388.135 53.8438C386.729 53.4661 385.453 52.8932 384.307 52.125C383.161 51.3438 382.243 50.3477 381.553 49.1367C380.876 47.9128 380.538 46.4609 380.538 44.7812H387.413C387.413 45.6146 387.523 46.3177 387.745 46.8906C387.966 47.4635 388.292 47.9258 388.721 48.2773C389.151 48.6159 389.678 48.8633 390.303 49.0195C390.928 49.1628 391.644 49.2344 392.452 49.2344C393.324 49.2344 394.027 49.1107 394.561 48.8633C395.095 48.6029 395.486 48.2643 395.733 47.8477C395.98 47.418 396.104 46.9492 396.104 46.4414Z" fill="#1E0D0D"/>
</svg>
