<svg width="539" height="103" viewBox="0 0 539 103" fill="none" xmlns="http://www.w3.org/2000/svg">
<path d="M0.475615 89.6923L1.71677 13.134L538.63 9.36418L537.114 102.877L0.475615 89.6923Z" fill="#943700"/>
<path d="M73.669 58.1134L73.7115 34.6994L81.9147 34.7143L81.8721 58.1283C81.868 60.4095 81.341 62.3852 80.2911 64.0551C79.2568 65.7251 77.8482 67.0194 76.0653 67.9381C74.298 68.8411 72.3128 69.2907 70.1097 69.2867C67.8284 69.2825 65.7979 68.896 64.018 68.1272C62.2538 67.3583 60.8653 66.1761 59.8526 64.5805C58.8555 62.985 58.3592 60.9528 58.3637 58.4841L66.6136 58.499C66.6115 59.6553 66.7427 60.5618 67.0071 61.2185C67.2716 61.8596 67.6614 62.3134 68.1765 62.58C68.7073 62.831 69.3555 62.9571 70.1212 62.9585C70.8712 62.9599 71.5043 62.7735 72.0206 62.3995C72.5526 62.0098 72.9598 61.4559 73.2424 60.7376C73.525 60.0038 73.6672 59.129 73.669 58.1134ZM115.986 51.159L115.984 52.5418C115.979 55.1511 115.608 57.4942 114.87 59.571C114.147 61.6322 113.12 63.396 111.79 64.8623C110.459 66.313 108.887 67.4274 107.073 68.2053C105.259 68.9676 103.258 69.3468 101.071 69.3429C98.8674 69.3389 96.8525 68.9524 95.0258 68.1834C93.2147 67.3989 91.6386 66.2789 90.2975 64.8233C88.9721 63.3521 87.944 61.5846 87.2134 59.5208C86.4984 57.4414 86.1433 55.097 86.148 52.4876L86.1505 51.1048C86.1553 48.4954 86.5189 46.1523 87.2414 44.0755C87.9796 41.9987 89.0062 40.235 90.3213 38.7842C91.6521 37.3179 93.2245 36.2036 95.0384 35.4412C96.8679 34.6633 98.8842 34.2763 101.087 34.2803C103.275 34.2843 105.274 34.6786 107.085 35.4631C108.912 36.232 110.488 37.3521 111.813 38.8232C113.139 40.2788 114.167 42.0463 114.898 44.1257C115.628 46.2052 115.991 48.5496 115.986 51.159ZM107.64 52.5266L107.643 51.0969C107.646 49.4094 107.5 47.9248 107.206 46.643C106.927 45.3456 106.507 44.2589 105.946 43.3829C105.385 42.5069 104.691 41.8494 103.863 41.4104C103.052 40.9558 102.123 40.7275 101.076 40.7256C99.9819 40.7236 99.0284 40.9485 98.215 41.4001C97.4017 41.8362 96.7209 42.4912 96.1724 43.3652C95.6239 44.2392 95.2079 45.3244 94.9243 46.6207C94.6564 47.9015 94.5209 49.3856 94.5178 51.0731L94.5152 52.5028C94.5122 54.1747 94.6423 55.6593 94.9055 56.9566C95.1845 58.2384 95.5966 59.3251 96.1418 60.2167C96.7027 61.1084 97.389 61.7815 98.2007 62.2361C99.028 62.6907 99.9885 62.919 101.082 62.921C102.129 62.9229 103.059 62.698 103.873 62.2464C104.686 61.7947 105.367 61.1241 105.915 60.2344C106.479 59.3448 106.903 58.2597 107.187 56.9789C107.486 55.6826 107.637 54.1985 107.64 52.5266ZM129.024 34.7998L128.962 68.9247L120.759 68.9098L120.821 34.7849L129.024 34.7998ZM163.313 34.862L163.251 68.987L155.048 68.9721L143.016 47.7158L142.978 68.9502L134.751 68.9352L134.813 34.8103L143.04 34.8252L155.071 56.0815L155.11 34.8471L163.313 34.862ZM211.788 57.5204L219.991 57.5353C219.877 59.9101 219.233 62.0027 218.057 63.813C216.882 65.6234 215.255 67.0345 213.175 68.0464C211.11 69.0426 208.672 69.5382 205.859 69.5331C203.578 69.5289 201.54 69.1424 199.744 68.3735C197.965 67.6047 196.451 66.5004 195.203 65.0606C193.972 63.6209 193.03 61.877 192.377 59.8289C191.74 57.7809 191.424 55.4756 191.429 52.9131L191.432 51.0615C191.437 48.4991 191.777 46.195 192.452 44.1493C193.144 42.0881 194.116 40.3398 195.368 38.9046C196.636 37.4538 198.154 36.3472 199.921 35.5847C201.688 34.8223 203.65 34.4431 205.806 34.447C208.775 34.4524 211.282 34.9882 213.326 36.0544C215.371 37.1206 216.955 38.5844 218.076 40.4458C219.198 42.2916 219.858 44.3944 220.057 46.7541L211.854 46.7392C211.825 45.4579 211.608 44.3872 211.204 43.5271C210.799 42.6514 210.159 41.994 209.285 41.5549C208.411 41.1158 207.247 40.8949 205.794 40.8923C204.779 40.8904 203.895 41.0763 203.145 41.45C202.394 41.8236 201.768 42.4162 201.267 43.2278C200.765 44.0394 200.388 45.0934 200.136 46.3898C199.899 47.6707 199.779 49.2173 199.776 51.0298L199.772 52.9283C199.769 54.7408 199.876 56.2878 200.092 57.5695C200.309 58.8511 200.658 59.8986 201.141 60.712C201.624 61.5254 202.248 62.1281 203.013 62.5201C203.793 62.8965 204.746 63.0857 205.871 63.0878C207.121 63.09 208.176 62.8966 209.036 62.5076C209.896 62.1029 210.562 61.4947 211.032 60.6831C211.502 59.8558 211.754 58.8016 211.788 57.5204ZM238.37 42.1702L230.001 69.1082L221.165 69.0921L233.766 34.9899L239.368 35.0001L238.37 42.1702ZM245.212 69.1358L236.917 42.1675L235.852 34.9937L241.524 35.004L254.071 69.1518L245.212 69.1358ZM244.907 56.4086L244.895 62.7602L227.387 62.7284L227.399 56.3768L244.907 56.4086ZM270.352 35.0563L270.29 69.1813L262.063 69.1664L262.125 35.0414L270.352 35.0563ZM280.617 35.075L280.606 41.4265L252.083 41.3748L252.094 35.0232L280.617 35.075ZM295.698 42.2742L287.329 69.2122L278.493 69.1962L291.094 35.094L296.696 35.1042L295.698 42.2742ZM302.54 69.2398L294.245 42.2716L293.18 35.0978L298.852 35.1081L311.399 69.2559L302.54 69.2398ZM302.235 56.5127L302.223 62.8642L284.715 62.8325L284.727 56.4809L302.235 56.5127ZM336.465 62.9733L336.454 69.3014L319.204 69.2701L319.215 62.942L336.465 62.9733ZM322.195 35.1505L322.134 69.2754L313.907 69.2605L313.969 35.1355L322.195 35.1505ZM339.61 35.1821L345.864 50.0059L352.195 35.2049L361.055 35.221L350.046 57.0682L350.024 69.326L341.657 69.3108L341.679 57.0531L330.727 35.1659L339.61 35.1821ZM380.72 60.3114C380.721 59.7802 380.644 59.3035 380.488 58.8813C380.333 58.4435 380.045 58.0368 379.623 57.661C379.202 57.2852 378.594 56.9091 377.797 56.5327C377.017 56.1406 375.986 55.7325 374.706 55.3083C373.207 54.8056 371.762 54.2405 370.373 53.6129C368.984 52.9698 367.743 52.2254 366.65 51.3796C365.558 50.5183 364.693 49.5167 364.054 48.3749C363.416 47.2175 363.098 45.8732 363.101 44.3419C363.103 42.8732 363.434 41.5535 364.092 40.3828C364.751 39.1965 365.667 38.1903 366.84 37.3643C368.029 36.5227 369.421 35.8846 371.015 35.45C372.61 34.9998 374.353 34.7764 376.243 34.7798C378.743 34.7844 380.945 35.2259 382.85 36.1043C384.77 36.9672 386.268 38.1965 387.343 39.7922C388.434 41.3723 388.978 43.2405 388.974 45.3967L380.794 45.3819C380.796 44.5225 380.617 43.7643 380.259 43.1074C379.917 42.4506 379.394 41.934 378.692 41.5577C377.989 41.1814 377.107 40.9923 376.044 40.9904C375.013 40.9885 374.146 41.1432 373.442 41.4544C372.738 41.7657 372.206 42.1866 371.846 42.7172C371.486 43.2321 371.305 43.8021 371.304 44.4271C371.303 44.9427 371.443 45.4117 371.723 45.8341C372.019 46.2409 372.433 46.6245 372.963 46.9848C373.509 47.3452 374.165 47.6901 374.93 48.0196C375.711 48.3492 376.585 48.6711 377.553 48.9853C379.365 49.5668 380.973 50.2181 382.378 50.9394C383.798 51.6451 384.992 52.452 385.959 53.36C386.942 54.2524 387.683 55.2694 388.18 56.4109C388.694 57.5525 388.949 58.842 388.947 60.2795C388.944 61.8107 388.645 63.1696 388.049 64.356C387.453 65.5424 386.6 66.5487 385.489 67.3748C384.378 68.1853 383.049 68.8 381.501 69.2191C379.953 69.6382 378.226 69.846 376.32 69.8425C374.57 69.8393 372.844 69.6175 371.142 69.1769C369.455 68.7207 367.925 68.0304 366.552 67.106C365.178 66.166 364.079 64.9687 363.253 63.5141C362.444 62.0439 362.041 60.301 362.044 58.2853L370.294 58.3003C370.292 59.3003 370.424 60.1443 370.688 60.8323C370.952 61.5203 371.342 62.0757 371.857 62.4985C372.372 62.9057 373.004 63.2037 373.754 63.3925C374.503 63.5658 375.363 63.6533 376.331 63.655C377.378 63.6569 378.222 63.51 378.863 63.2143C379.505 62.903 379.974 62.4976 380.272 61.9981C380.57 61.483 380.719 60.9208 380.72 60.3114ZM409.758 35.3094L409.696 69.4344L401.469 69.4194L401.531 35.2945L409.758 35.3094ZM420.023 35.328L420.012 41.6796L391.489 41.6278L391.5 35.2763L420.023 35.328ZM440.673 60.4203C440.674 59.889 440.597 59.4123 440.441 58.9902C440.286 58.5524 439.998 58.1456 439.577 57.7698C439.155 57.3941 438.547 57.018 437.75 56.6415C436.97 56.2495 435.939 55.8413 434.659 55.4171C433.16 54.9144 431.716 54.3493 430.326 53.7218C428.937 53.0786 427.696 52.3342 426.604 51.4885C425.511 50.6271 424.646 49.6255 424.007 48.4837C423.369 47.3263 423.051 45.982 423.054 44.4508C423.056 42.982 423.387 41.6623 424.045 40.4916C424.704 39.3053 425.62 38.2991 426.793 37.4732C427.982 36.6316 429.374 35.9935 430.968 35.5589C432.563 35.1086 434.306 34.8852 436.196 34.8887C438.696 34.8932 440.898 35.3347 442.803 36.2132C444.723 37.076 446.221 38.3053 447.296 39.901C448.387 41.4811 448.931 43.3493 448.927 45.5055L440.747 45.4907C440.749 44.6313 440.57 43.8732 440.212 43.2163C439.87 42.5594 439.347 42.0428 438.645 41.6665C437.942 41.2903 437.06 41.1012 435.997 41.0992C434.966 41.0974 434.099 41.252 433.395 41.5633C432.691 41.8745 432.159 42.2954 431.799 42.826C431.439 43.341 431.258 43.911 431.257 44.536C431.256 45.0516 431.396 45.5206 431.676 45.943C431.972 46.3498 432.386 46.7333 432.916 47.0937C433.462 47.454 434.118 47.799 434.883 48.1285C435.664 48.458 436.538 48.7799 437.506 49.0942C439.318 49.6756 440.926 50.327 442.331 51.0483C443.751 51.754 444.945 52.5608 445.912 53.4688C446.895 54.3612 447.636 55.3782 448.133 56.5197C448.647 57.6613 448.903 58.9508 448.9 60.3883C448.897 61.9196 448.598 63.2784 448.002 64.4648C447.406 65.6512 446.553 66.6575 445.442 67.4836C444.331 68.2941 443.002 68.9089 441.454 69.3279C439.906 69.747 438.179 69.9548 436.273 69.9514C434.523 69.9482 432.797 69.7263 431.095 69.2857C429.408 68.8295 427.878 68.1392 426.505 67.2149C425.131 66.2749 424.032 65.0776 423.206 63.6229C422.397 62.1527 421.994 60.4098 421.997 58.3942L430.247 58.4091C430.245 59.4091 430.377 60.2531 430.641 60.9411C430.905 61.6291 431.295 62.1845 431.81 62.6073C432.325 63.0145 432.957 63.3125 433.707 63.5014C434.456 63.6746 435.316 63.7621 436.284 63.7639C437.331 63.7658 438.175 63.6189 438.816 63.3231C439.458 63.0118 439.927 62.6064 440.225 62.107C440.523 61.5919 440.672 61.0296 440.673 60.4203Z" fill="white"/>
</svg>
