<svg width="284" height="67" viewBox="0 0 284 67" fill="none" xmlns="http://www.w3.org/2000/svg">
<path d="M0.925108 63.2833L0.173254 13.5445L282.346 0.274792L283.265 61.0287L0.925108 63.2833Z" fill="#943700"/>
<path d="M46.1511 37.3955L46.1052 25.6885L50.2067 25.6724L50.2526 37.3794C50.2571 38.52 49.9992 39.5093 49.479 40.3473C48.9667 41.1852 48.2661 41.8364 47.3773 42.3008C46.4963 42.7574 45.505 42.9879 44.4034 42.9922C43.2628 42.9967 42.2464 42.8092 41.3543 42.4299C40.47 42.0505 39.7724 41.4634 39.2615 40.6686C38.7584 39.8736 38.5044 38.859 38.4996 37.6246L42.6245 37.6085C42.6268 38.1866 42.695 38.6395 42.8291 38.9671C42.9631 39.2869 43.1593 39.5127 43.4177 39.6445C43.6838 39.7684 44.0082 39.8296 44.391 39.8281C44.766 39.8267 45.0821 39.7317 45.3391 39.5432C45.604 39.3468 45.806 39.0687 45.9453 38.7088C46.0844 38.341 46.153 37.9033 46.1511 37.3955ZM67.2895 33.797L67.2922 34.4884C67.2973 35.7931 67.1183 36.9657 66.7552 38.0062C66.3998 39.0388 65.8916 39.9236 65.2304 40.6606C64.5692 41.3898 63.7862 41.9514 62.8815 42.3456C61.9768 42.732 60.9775 42.9273 59.8838 42.9316C58.7822 42.9359 57.7737 42.7484 56.8581 42.3692C55.9503 41.9821 55.1591 41.4266 54.4844 40.7027C53.8175 39.9709 53.2984 39.0901 52.9271 38.0603C52.5637 37.0227 52.3794 35.8515 52.3743 34.5468L52.3716 33.8554C52.3665 32.5508 52.5416 31.3782 52.8969 30.3377C53.26 29.2972 53.7683 28.4124 54.4217 27.6833C55.0829 26.9463 55.8658 26.3847 56.7706 25.9983C57.6831 25.6041 58.6901 25.4049 59.7917 25.4005C60.8854 25.3963 61.8862 25.5876 62.794 25.9747C63.7095 26.354 64.5008 26.9095 65.1677 27.6412C65.8346 28.3652 66.3537 29.246 66.7249 30.2836C67.0962 31.3212 67.2844 32.4923 67.2895 33.797ZM63.1203 34.5048L63.1175 33.7899C63.1142 32.9462 63.0371 32.2043 62.8862 31.5642C62.743 30.9164 62.5299 30.3742 62.247 29.9378C61.964 29.5014 61.6151 29.1747 61.2002 28.9575C60.793 28.7326 60.3277 28.6211 59.8043 28.6232C59.2574 28.6253 58.7813 28.7405 58.376 28.9686C57.9706 29.1889 57.632 29.5184 57.3603 29.957C57.0886 30.3955 56.8837 30.9393 56.7456 31.5883C56.6153 32.2294 56.5518 32.9719 56.5551 33.8156L56.5579 34.5305C56.5612 35.3664 56.6305 36.1083 56.7658 36.7562C56.909 37.3963 57.1181 37.9384 57.3933 38.3827C57.6763 38.8269 58.0213 39.1615 58.4285 39.3865C58.8434 39.6114 59.3243 39.7228 59.8712 39.7206C60.3946 39.7186 60.859 39.6035 61.2644 39.3753C61.6698 39.1472 62.0083 38.8099 62.28 38.3635C62.5595 37.9171 62.7683 37.3733 62.9064 36.7322C63.0523 36.0832 63.1236 35.3407 63.1203 34.5048ZM73.7612 25.5802L73.8281 42.6426L69.7265 42.6586L69.6597 25.5963L73.7612 25.5802ZM90.9056 25.5131L90.9725 42.5754L86.8709 42.5915L80.7942 31.998L80.8358 42.6151L76.7226 42.6312L76.6558 25.5689L80.769 25.5528L86.8457 36.1462L86.8041 25.5291L90.9056 25.5131ZM115.207 36.7031L119.309 36.6871C119.259 37.8748 118.943 38.9229 118.36 39.8314C117.778 40.74 116.968 41.4502 115.931 41.9621C114.902 42.4661 113.684 42.7209 112.278 42.7264C111.137 42.7308 110.117 42.5434 109.217 42.1641C108.325 41.7848 107.565 41.237 106.937 40.5207C106.317 39.8044 105.841 38.9352 105.509 37.913C105.185 36.8908 105.02 35.7391 105.015 34.4579L105.011 33.5321C105.006 32.2509 105.17 31.0979 105.502 30.0731C105.841 29.0405 106.322 28.1637 106.945 27.4425C107.575 26.7134 108.33 26.1558 109.211 25.7695C110.093 25.3832 111.072 25.188 112.151 25.1838C113.635 25.178 114.89 25.4387 115.915 25.9659C116.941 26.4932 117.737 27.2205 118.303 28.148C118.869 29.0677 119.205 30.1171 119.311 31.2964L115.21 31.3125C115.192 30.6719 115.08 30.1372 114.875 29.7083C114.671 29.2716 114.349 28.9447 113.911 28.7277C113.472 28.5107 112.89 28.4036 112.163 28.4064C111.655 28.4084 111.214 28.5039 110.84 28.6928C110.466 28.8818 110.155 29.1799 109.906 29.5871C109.658 29.9944 109.472 30.5224 109.35 31.1714C109.235 31.8124 109.18 32.5861 109.183 33.4923L109.187 34.4415C109.19 35.3478 109.248 36.121 109.36 36.7612C109.472 37.4014 109.65 37.9241 109.893 38.3294C110.137 38.7347 110.451 39.0343 110.835 39.2281C111.226 39.4141 111.703 39.506 112.265 39.5037C112.89 39.5013 113.417 39.4016 113.846 39.2046C114.275 38.9998 114.606 38.6938 114.839 38.2866C115.071 37.8717 115.194 37.3438 115.207 36.7031ZM128.455 28.952L124.347 42.4447L119.929 42.462L126.132 25.3751L128.933 25.3641L128.455 28.952ZM131.953 42.415L127.728 28.9548L127.175 25.371L130.011 25.3599L136.382 42.3976L131.953 42.415ZM131.764 36.0524L131.776 39.2281L123.022 39.2624L123.01 36.0866L131.764 36.0524ZM144.425 25.3035L144.492 42.3659L140.378 42.382L140.312 25.3196L144.425 25.3035ZM149.558 25.2834L149.57 28.4591L135.308 28.515L135.296 25.3392L149.558 25.2834ZM157.118 28.8397L153.011 42.3325L148.593 42.3498L154.796 25.2629L157.597 25.2519L157.118 28.8397ZM160.616 42.3027L156.392 28.8426L155.839 25.2588L158.675 25.2477L165.046 42.2854L160.616 42.3027ZM160.427 35.9401L160.44 39.1159L151.686 39.1502L151.674 35.9744L160.427 35.9401ZM177.561 39.0723L177.573 42.2363L168.948 42.2701L168.936 39.106L177.561 39.0723ZM170.346 25.202L170.413 42.2643L166.3 42.2804L166.233 25.2181L170.346 25.202ZM179.053 25.1679L182.223 32.5618L185.346 25.1432L189.776 25.1259L184.334 36.0809L184.358 42.2097L180.175 42.2261L180.151 36.0973L174.612 25.1853L179.053 25.1679ZM199.68 37.6145C199.679 37.3489 199.639 37.1108 199.56 36.9002C199.481 36.6817 199.336 36.4792 199.124 36.2925C198.913 36.1058 198.607 35.9195 198.208 35.7336C197.817 35.5398 197.3 35.3387 196.659 35.1303C195.908 34.8832 195.184 34.6048 194.488 34.295C193.791 33.9774 193.169 33.6088 192.62 33.189C192.072 32.7615 191.636 32.2632 191.313 31.6941C190.991 31.1173 190.828 30.446 190.825 29.6804C190.822 28.946 190.984 28.2852 191.31 27.698C191.635 27.103 192.09 26.5973 192.675 26.1809C193.267 25.7567 193.961 25.4337 194.757 25.2118C195.553 24.9822 196.423 24.8655 197.369 24.8618C198.619 24.8569 199.721 25.0713 200.676 25.5051C201.639 25.931 202.391 26.5413 202.933 27.3361C203.483 28.123 203.76 29.0555 203.764 30.1336L199.675 30.1497C199.673 29.72 199.582 29.3414 199.401 29.014C199.227 28.6866 198.965 28.4298 198.612 28.2436C198.26 28.0575 197.818 27.9655 197.287 27.9676C196.772 27.9696 196.338 28.0494 195.987 28.207C195.636 28.3647 195.372 28.5767 195.193 28.843C195.014 29.1015 194.926 29.387 194.927 29.6995C194.928 29.9573 194.999 30.1914 195.14 30.4018C195.29 30.6043 195.497 30.7949 195.764 30.9736C196.038 31.1522 196.367 31.3228 196.75 31.4853C197.141 31.6479 197.58 31.8063 198.065 31.9607C198.972 32.2462 199.778 32.5672 200.482 32.9239C201.195 33.2726 201.794 33.6726 202.28 34.1239C202.774 34.5672 203.147 35.0736 203.399 35.6429C203.659 36.2122 203.791 36.8562 203.794 37.575C203.797 38.3406 203.651 39.0209 203.356 39.6158C203.062 40.2107 202.638 40.7163 202.085 41.1325C201.532 41.5409 200.869 41.8521 200.096 42.0661C199.324 42.28 198.461 42.3889 197.508 42.3926C196.633 42.396 195.769 42.29 194.917 42.0746C194.072 41.8514 193.305 41.5106 192.616 41.0524C191.926 40.5863 191.373 39.9908 190.956 39.2659C190.547 38.5331 190.341 37.6628 190.337 36.655L194.462 36.6389C194.464 37.1389 194.532 37.5605 194.666 37.9037C194.8 38.2469 194.996 38.5235 195.255 38.7334C195.514 38.9355 195.831 39.0827 196.206 39.175C196.581 39.2595 197.011 39.3008 197.496 39.2989C198.019 39.2968 198.441 39.221 198.76 39.0713C199.08 38.9138 199.314 38.7097 199.461 38.4591C199.609 38.2008 199.682 37.9192 199.68 37.6145ZM214.127 25.0305L214.194 42.0929L210.081 42.109L210.014 25.0466L214.127 25.0305ZM219.26 25.0104L219.273 28.1862L205.011 28.242L204.999 25.0663L219.26 25.0104ZM229.657 37.4971C229.656 37.2315 229.616 36.9934 229.537 36.7828C229.458 36.5643 229.312 36.3618 229.101 36.1751C228.889 35.9884 228.584 35.8021 228.185 35.6162C227.793 35.4224 227.277 35.2213 226.635 35.0129C225.884 34.7658 225.161 34.4874 224.464 34.1776C223.767 33.86 223.145 33.4914 222.596 33.0716C222.048 32.6441 221.612 32.1458 221.29 31.5767C220.967 30.9999 220.804 30.3286 220.801 29.563C220.799 28.8286 220.96 28.1678 221.286 27.5806C221.612 26.9856 222.067 26.4799 222.651 26.0636C223.243 25.6394 223.937 25.3163 224.733 25.0945C225.529 24.8648 226.4 24.7481 227.345 24.7444C228.595 24.7395 229.697 24.9539 230.652 25.3877C231.615 25.8136 232.367 26.4239 232.91 27.2187C233.459 28.0056 233.737 28.9381 233.741 30.0162L229.651 30.0323C229.649 29.6026 229.558 29.224 229.377 28.8966C229.204 28.5692 228.941 28.3124 228.589 28.1263C228.237 27.9401 227.795 27.8481 227.263 27.8502C226.748 27.8522 226.315 27.932 225.964 28.0897C225.613 28.2473 225.348 28.4593 225.169 28.7256C224.991 28.9841 224.902 29.2696 224.903 29.5821C224.904 29.8399 224.975 30.074 225.117 30.2844C225.266 30.4869 225.474 30.6775 225.74 30.8562C226.014 31.0348 226.343 31.2054 226.726 31.3679C227.118 31.5305 227.556 31.6889 228.041 31.8433C228.948 32.1288 229.754 32.4498 230.459 32.8065C231.171 33.1552 231.77 33.5552 232.256 34.0065C232.75 34.4498 233.123 34.9562 233.376 35.5255C233.636 36.0948 233.767 36.7389 233.77 37.4576C233.773 38.2232 233.627 38.9035 233.333 39.4984C233.038 40.0933 232.614 40.5989 232.061 41.0151C231.508 41.4235 230.845 41.7347 230.073 41.9487C229.3 42.1626 228.437 42.2715 227.484 42.2752C226.609 42.2786 225.745 42.1727 224.893 41.9572C224.048 41.734 223.281 41.3932 222.592 40.935C221.903 40.4689 221.35 39.8734 220.933 39.1485C220.524 38.4157 220.317 37.5454 220.313 36.5376L224.438 36.5215C224.44 37.0215 224.508 37.4431 224.642 37.7863C224.776 38.1295 224.973 38.4061 225.231 38.616C225.49 38.8182 225.807 38.9654 226.182 39.0576C226.558 39.1421 226.988 39.1834 227.472 39.1815C227.995 39.1794 228.417 39.1036 228.737 38.9539C229.056 38.7964 229.29 38.5923 229.437 38.3418C229.585 38.0834 229.658 37.8018 229.657 37.4971Z" fill="white"/>
</svg>
