<svg width="246" height="40" viewBox="0 0 246 40" fill="none" xmlns="http://www.w3.org/2000/svg">
<path d="M246 1.91408V34.6691L0.638306 40V0L246 1.91408Z" fill="#00C4B3"/>
<path d="M46.7832 10.7812H49.5762L52.75 20.6738L55.9238 10.7812H58.7168L53.8828 25H51.6172L46.7832 10.7812ZM45.084 10.7812H47.9746L48.5117 21.6797V25H45.084V10.7812ZM57.5254 10.7812H60.4258V25H56.9883V21.6797L57.5254 10.7812ZM68.8242 13.7695L65.3574 25H61.6758L66.9004 10.7812H69.2344L68.8242 13.7695ZM71.6953 25L68.2188 13.7695L67.7695 10.7812H70.1328L75.3867 25H71.6953ZM71.5586 19.6973V22.3438H64.2637V19.6973H71.5586ZM88.3066 10.7812V25H84.8887L79.8594 16.1523V25H76.4316V10.7812H79.8594L84.8887 19.6289V10.7812H88.3066ZM94.1172 10.7812V25H90.6992V10.7812H94.1172ZM99.957 10.7812V25H96.5293V10.7812H99.957ZM105.484 16.6992V19.3359H98.9805V16.6992H105.484ZM106.041 10.7812V13.4277H98.9805V10.7812H106.041ZM117.252 22.3633V25H109.674V22.3633H117.252ZM110.895 10.7812V25H107.467V10.7812H110.895ZM116.275 16.4258V18.9746H109.674V16.4258H116.275ZM117.281 10.7812V13.4277H109.674V10.7812H117.281ZM125.982 21.2207C125.982 20.9993 125.95 20.8008 125.885 20.625C125.82 20.4427 125.699 20.2734 125.523 20.1172C125.348 19.9609 125.094 19.8047 124.762 19.6484C124.436 19.4857 124.007 19.3164 123.473 19.1406C122.848 18.9323 122.245 18.6979 121.666 18.4375C121.087 18.1706 120.569 17.8613 120.113 17.5098C119.658 17.1517 119.296 16.735 119.029 16.2598C118.762 15.778 118.629 15.2181 118.629 14.5801C118.629 13.9681 118.766 13.418 119.039 12.9297C119.312 12.4349 119.693 12.015 120.182 11.6699C120.676 11.3184 121.256 11.0514 121.92 10.8691C122.584 10.6803 123.31 10.5859 124.098 10.5859C125.139 10.5859 126.057 10.7682 126.852 11.1328C127.652 11.4909 128.277 12.002 128.727 12.666C129.182 13.3236 129.41 14.1016 129.41 15H126.002C126.002 14.6419 125.927 14.3262 125.777 14.0527C125.634 13.7793 125.416 13.5645 125.123 13.4082C124.83 13.252 124.462 13.1738 124.02 13.1738C123.59 13.1738 123.229 13.2389 122.936 13.3691C122.643 13.4993 122.421 13.6751 122.271 13.8965C122.122 14.1113 122.047 14.349 122.047 14.6094C122.047 14.8242 122.105 15.0195 122.223 15.1953C122.346 15.3646 122.519 15.5241 122.74 15.6738C122.968 15.8236 123.242 15.9668 123.561 16.1035C123.886 16.2402 124.251 16.3737 124.654 16.5039C125.41 16.7448 126.08 17.015 126.666 17.3145C127.258 17.6074 127.757 17.9427 128.16 18.3203C128.57 18.6914 128.88 19.1146 129.088 19.5898C129.303 20.0651 129.41 20.6022 129.41 21.2012C129.41 21.8392 129.286 22.4056 129.039 22.9004C128.792 23.3952 128.437 23.8151 127.975 24.1602C127.512 24.4987 126.959 24.7559 126.314 24.9316C125.67 25.1074 124.951 25.1953 124.156 25.1953C123.427 25.1953 122.708 25.1042 121.998 24.9219C121.295 24.7331 120.657 24.4466 120.084 24.0625C119.511 23.6719 119.052 23.1738 118.707 22.5684C118.368 21.9564 118.199 21.2305 118.199 20.3906H121.637C121.637 20.8073 121.692 21.1589 121.803 21.4453C121.913 21.7318 122.076 21.9629 122.291 22.1387C122.506 22.3079 122.77 22.4316 123.082 22.5098C123.395 22.5814 123.753 22.6172 124.156 22.6172C124.592 22.6172 124.944 22.5553 125.211 22.4316C125.478 22.3014 125.673 22.1322 125.797 21.9238C125.921 21.709 125.982 21.4746 125.982 21.2207ZM138.062 10.7812V25H134.635V10.7812H138.062ZM142.34 10.7812V13.4277H130.455V10.7812H142.34ZM155.553 17.6074V18.1836C155.553 19.2708 155.4 20.2474 155.094 21.1133C154.794 21.9727 154.368 22.7083 153.814 23.3203C153.261 23.9258 152.607 24.3913 151.852 24.7168C151.096 25.0358 150.263 25.1953 149.352 25.1953C148.434 25.1953 147.594 25.0358 146.832 24.7168C146.077 24.3913 145.419 23.9258 144.859 23.3203C144.306 22.7083 143.876 21.9727 143.57 21.1133C143.271 20.2474 143.121 19.2708 143.121 18.1836V17.6074C143.121 16.5202 143.271 15.5436 143.57 14.6777C143.876 13.8118 144.303 13.0762 144.85 12.4707C145.403 11.8587 146.057 11.3932 146.812 11.0742C147.574 10.7487 148.414 10.5859 149.332 10.5859C150.243 10.5859 151.077 10.7487 151.832 11.0742C152.594 11.3932 153.251 11.8587 153.805 12.4707C154.358 13.0762 154.788 13.8118 155.094 14.6777C155.4 15.5436 155.553 16.5202 155.553 17.6074ZM152.076 18.1836V17.5879C152.076 16.8848 152.014 16.2663 151.891 15.7324C151.773 15.1921 151.598 14.7396 151.363 14.375C151.129 14.0104 150.839 13.737 150.494 13.5547C150.156 13.3659 149.768 13.2715 149.332 13.2715C148.876 13.2715 148.479 13.3659 148.141 13.5547C147.802 13.737 147.519 14.0104 147.291 14.375C147.063 14.7396 146.891 15.1921 146.773 15.7324C146.663 16.2663 146.607 16.8848 146.607 17.5879V18.1836C146.607 18.8802 146.663 19.4987 146.773 20.0391C146.891 20.5729 147.063 21.0254 147.291 21.3965C147.525 21.7676 147.812 22.0475 148.15 22.2363C148.495 22.4251 148.896 22.5195 149.352 22.5195C149.788 22.5195 150.175 22.4251 150.514 22.2363C150.852 22.0475 151.135 21.7676 151.363 21.3965C151.598 21.0254 151.773 20.5729 151.891 20.0391C152.014 19.4987 152.076 18.8802 152.076 18.1836Z" fill="white"/>
</svg>
