<svg width="483" height="100" viewBox="0 0 483 100" fill="none" xmlns="http://www.w3.org/2000/svg">
<path d="M482.47 5.51981V85.9498L0.799805 99.0498V0.819824L482.47 5.51981Z" fill="#00C5B4"/>
<path d="M75.3282 26.305H89.3115C92.1786 26.305 94.6422 26.7342 96.7023 27.5926C98.7797 28.451 100.376 29.7214 101.492 31.4038C102.608 33.0863 103.166 35.155 103.166 37.6101C103.166 39.6187 102.823 41.3441 102.136 42.7862C101.466 44.2112 100.514 45.4043 99.2775 46.3657C98.0586 47.31 96.6251 48.0654 94.977 48.6319L92.5305 49.9195H80.3756L80.3241 43.8935H89.363C90.7193 43.8935 91.8438 43.6532 92.7365 43.1725C93.6293 42.6918 94.2988 42.0222 94.7452 41.1638C95.2087 40.3054 95.4405 39.3097 95.4405 38.1766C95.4405 36.9749 95.2173 35.9362 94.7709 35.0606C94.3246 34.1851 93.6464 33.5155 92.7365 33.052C91.8266 32.5884 90.685 32.3567 89.3115 32.3567H83.0538V63.7998H75.3282V26.305ZM96.2903 63.7998L87.7407 47.0868L95.904 47.0353L104.557 63.4393V63.7998H96.2903ZM134.274 57.7738V63.7998H114.317V57.7738H134.274ZM116.84 26.305V63.7998H109.115V26.305H116.84ZM131.673 41.5759V47.4473H114.317V41.5759H131.673ZM134.249 26.305V32.3567H114.317V26.305H134.249ZM158.301 53.9883C158.301 53.3188 158.198 52.7179 157.992 52.1857C157.803 51.6363 157.443 51.1384 156.91 50.6921C156.378 50.2285 155.631 49.7736 154.67 49.3272C153.709 48.8808 152.464 48.4173 150.936 47.9366C149.236 47.3872 147.623 46.7692 146.095 46.0825C144.584 45.3957 143.245 44.5974 142.077 43.6875C140.927 42.7605 140.017 41.6875 139.348 40.4685C138.695 39.2496 138.369 37.8333 138.369 36.2195C138.369 34.6572 138.712 33.2408 139.399 31.9704C140.086 30.6828 141.047 29.584 142.283 28.6741C143.519 27.7471 144.979 27.0346 146.661 26.5367C148.361 26.0389 150.223 25.7899 152.249 25.7899C155.013 25.7899 157.425 26.2878 159.486 27.2835C161.546 28.2793 163.142 29.6441 164.275 31.3781C165.426 33.1121 166.001 35.095 166.001 37.3268H158.327C158.327 36.228 158.095 35.2666 157.631 34.4426C157.185 33.6013 156.498 32.9404 155.571 32.4597C154.661 31.979 153.511 31.7386 152.121 31.7386C150.781 31.7386 149.666 31.9446 148.773 32.3567C147.88 32.7515 147.211 33.2923 146.764 33.979C146.318 34.6486 146.095 35.404 146.095 36.2452C146.095 36.8804 146.249 37.4556 146.558 37.9706C146.884 38.4856 147.365 38.9663 148 39.4127C148.635 39.8591 149.417 40.2797 150.344 40.6746C151.271 41.0694 152.344 41.4557 153.563 41.8334C155.606 42.4514 157.4 43.1467 158.945 43.9193C160.507 44.6919 161.812 45.5588 162.859 46.5202C163.906 47.4816 164.696 48.5718 165.228 49.7907C165.76 51.0097 166.027 52.3917 166.027 53.9368C166.027 55.5678 165.709 57.027 165.074 58.3146C164.439 59.6022 163.52 60.6924 162.318 61.5851C161.117 62.4779 159.683 63.156 158.018 63.6195C156.352 64.0831 154.49 64.3148 152.43 64.3148C150.575 64.3148 148.747 64.0745 146.944 63.5938C145.142 63.0959 143.502 62.3491 142.026 61.3534C140.567 60.3576 139.399 59.0872 138.524 57.5421C137.648 55.997 137.21 54.1686 137.21 52.0569H144.962C144.962 53.2243 145.142 54.2115 145.502 55.0184C145.863 55.8253 146.369 56.4777 147.022 56.9755C147.691 57.4734 148.481 57.8339 149.391 58.0571C150.318 58.2803 151.331 58.3919 152.43 58.3919C153.769 58.3919 154.867 58.203 155.726 57.8254C156.601 57.4477 157.245 56.924 157.657 56.2545C158.086 55.5849 158.301 54.8295 158.301 53.9883ZM202.079 44.1768V45.9537C202.079 48.8036 201.693 51.3616 200.921 53.6278C200.148 55.894 199.058 57.8254 197.65 59.422C196.242 61.0014 194.56 62.2118 192.603 63.053C190.663 63.8942 188.508 64.3148 186.139 64.3148C183.787 64.3148 181.632 63.8942 179.675 63.053C177.735 62.2118 176.053 61.0014 174.628 59.422C173.203 57.8254 172.095 55.894 171.306 53.6278C170.533 51.3616 170.147 48.8036 170.147 45.9537V44.1768C170.147 41.3098 170.533 38.7517 171.306 36.5027C172.078 34.2366 173.168 32.3052 174.576 30.7085C176.001 29.1119 177.684 27.893 179.624 27.0518C181.581 26.2105 183.735 25.7899 186.087 25.7899C188.457 25.7899 190.611 26.2105 192.551 27.0518C194.508 27.893 196.191 29.1119 197.599 30.7085C199.023 32.3052 200.122 34.2366 200.895 36.5027C201.684 38.7517 202.079 41.3098 202.079 44.1768ZM194.276 45.9537V44.1253C194.276 42.1338 194.096 40.3827 193.736 38.8719C193.375 37.3611 192.843 36.0907 192.139 35.0606C191.435 34.0305 190.577 33.258 189.564 32.7429C188.551 32.2107 187.392 31.9446 186.087 31.9446C184.783 31.9446 183.624 32.2107 182.611 32.7429C181.615 33.258 180.765 34.0305 180.061 35.0606C179.375 36.0907 178.851 37.3611 178.491 38.8719C178.13 40.3827 177.95 42.1338 177.95 44.1253V45.9537C177.95 47.928 178.13 49.6791 178.491 51.2071C178.851 52.7179 179.383 53.9969 180.087 55.0441C180.791 56.0742 181.649 56.8554 182.662 57.3876C183.675 57.9198 184.834 58.1859 186.139 58.1859C187.444 58.1859 188.602 57.9198 189.615 57.3876C190.628 56.8554 191.478 56.0742 192.165 55.0441C192.852 53.9969 193.375 52.7179 193.736 51.2071C194.096 49.6791 194.276 47.928 194.276 45.9537ZM228.346 26.305H236.046V51.0783C236.046 53.9626 235.428 56.3918 234.192 58.3661C232.973 60.3405 231.282 61.8255 229.119 62.8212C226.973 63.817 224.501 64.3148 221.702 64.3148C218.904 64.3148 216.415 63.817 214.234 62.8212C212.071 61.8255 210.371 60.3405 209.135 58.3661C207.916 56.3918 207.307 53.9626 207.307 51.0783V26.305H215.033V51.0783C215.033 52.7608 215.299 54.1342 215.831 55.1987C216.363 56.2631 217.127 57.0442 218.123 57.5421C219.136 58.04 220.329 58.2889 221.702 58.2889C223.11 58.2889 224.303 58.04 225.282 57.5421C226.278 57.0442 227.033 56.2631 227.548 55.1987C228.08 54.1342 228.346 52.7608 228.346 51.0783V26.305ZM242.407 26.305H256.39C259.257 26.305 261.721 26.7342 263.781 27.5926C265.858 28.451 267.455 29.7214 268.571 31.4038C269.687 33.0863 270.245 35.155 270.245 37.6101C270.245 39.6187 269.901 41.3441 269.215 42.7862C268.545 44.2112 267.592 45.4043 266.356 46.3657C265.137 47.31 263.704 48.0654 262.056 48.6319L259.609 49.9195H247.454L247.403 43.8935H256.442C257.798 43.8935 258.922 43.6532 259.815 43.1725C260.708 42.6918 261.378 42.0222 261.824 41.1638C262.287 40.3054 262.519 39.3097 262.519 38.1766C262.519 36.9749 262.296 35.9362 261.85 35.0606C261.403 34.1851 260.725 33.5155 259.815 33.052C258.905 32.5884 257.764 32.3567 256.39 32.3567H250.132V63.7998H242.407V26.305ZM263.369 63.7998L254.819 47.0868L262.983 47.0353L271.635 63.4393V63.7998H263.369ZM297.928 51.3616H305.628C305.473 53.8853 304.778 56.1257 303.542 58.0829C302.323 60.04 300.615 61.568 298.417 62.6667C296.237 63.7655 293.61 64.3148 290.537 64.3148C288.134 64.3148 285.979 63.9028 284.074 63.0787C282.168 62.2375 280.537 61.0358 279.181 59.4735C277.842 57.9112 276.82 56.0227 276.116 53.808C275.412 51.5934 275.06 49.1126 275.06 46.3657V43.7648C275.06 41.0179 275.421 38.5371 276.142 36.3225C276.88 34.0906 277.927 32.1936 279.284 30.6313C280.657 29.069 282.297 27.8672 284.202 27.026C286.108 26.1848 288.237 25.7642 290.589 25.7642C293.713 25.7642 296.349 26.3307 298.495 27.4638C300.658 28.5969 302.332 30.1592 303.516 32.1507C304.718 34.1421 305.439 36.4083 305.679 38.9492H297.954C297.868 37.4384 297.568 36.1594 297.053 35.1121C296.538 34.0477 295.756 33.2494 294.709 32.7172C293.679 32.1678 292.306 31.8931 290.589 31.8931C289.301 31.8931 288.177 32.1335 287.215 32.6142C286.254 33.0949 285.447 33.8245 284.795 34.8031C284.142 35.7817 283.653 37.0178 283.327 38.5114C283.018 39.9878 282.863 41.7218 282.863 43.7133V46.3657C282.863 48.3057 283.009 50.0139 283.301 51.4904C283.593 52.9496 284.039 54.1857 284.64 55.1987C285.258 56.1944 286.048 56.9498 287.009 57.4648C287.988 57.9627 289.164 58.2116 290.537 58.2116C292.151 58.2116 293.482 57.9541 294.529 57.4391C295.576 56.924 296.374 56.1601 296.924 55.1471C297.49 54.1342 297.825 52.8724 297.928 51.3616ZM335.861 57.7738V63.7998H315.903V57.7738H335.861ZM318.427 26.305V63.7998H310.701V26.305H318.427ZM333.26 41.5759V47.4473H315.903V41.5759H333.26ZM335.835 26.305V32.3567H315.903V26.305H335.835ZM359.887 53.9883C359.887 53.3188 359.784 52.7179 359.578 52.1857C359.389 51.6363 359.029 51.1384 358.497 50.6921C357.965 50.2285 357.218 49.7736 356.256 49.3272C355.295 48.8808 354.05 48.4173 352.522 47.9366C350.823 47.3872 349.209 46.7692 347.681 46.0825C346.17 45.3957 344.831 44.5974 343.664 43.6875C342.513 42.7605 341.603 41.6875 340.934 40.4685C340.282 39.2496 339.955 37.8333 339.955 36.2195C339.955 34.6572 340.299 33.2408 340.985 31.9704C341.672 30.6828 342.634 29.584 343.87 28.6741C345.106 27.7471 346.565 27.0346 348.247 26.5367C349.947 26.0389 351.81 25.7899 353.836 25.7899C356.6 25.7899 359.012 26.2878 361.072 27.2835C363.132 28.2793 364.729 29.6441 365.862 31.3781C367.012 33.1121 367.587 35.095 367.587 37.3268H359.913C359.913 36.228 359.681 35.2666 359.218 34.4426C358.771 33.6013 358.085 32.9404 357.158 32.4597C356.248 31.979 355.097 31.7386 353.707 31.7386C352.368 31.7386 351.252 31.9446 350.359 32.3567C349.466 32.7515 348.797 33.2923 348.35 33.979C347.904 34.6486 347.681 35.404 347.681 36.2452C347.681 36.8804 347.835 37.4556 348.144 37.9706C348.471 38.4856 348.951 38.9663 349.587 39.4127C350.222 39.8591 351.003 40.2797 351.93 40.6746C352.857 41.0694 353.93 41.4557 355.149 41.8334C357.192 42.4514 358.986 43.1467 360.531 43.9193C362.093 44.6919 363.398 45.5588 364.445 46.5202C365.493 47.4816 366.282 48.5718 366.815 49.7907C367.347 51.0097 367.613 52.3917 367.613 53.9368C367.613 55.5678 367.295 57.027 366.66 58.3146C366.025 59.6022 365.106 60.6924 363.905 61.5851C362.703 62.4779 361.269 63.156 359.604 63.6195C357.939 64.0831 356.076 64.3148 354.016 64.3148C352.162 64.3148 350.333 64.0745 348.531 63.5938C346.728 63.0959 345.089 62.3491 343.612 61.3534C342.153 60.3576 340.985 59.0872 340.11 57.5421C339.234 55.997 338.796 54.1686 338.796 52.0569H346.548C346.548 53.2243 346.728 54.2115 347.089 55.0184C347.449 55.8253 347.956 56.4777 348.608 56.9755C349.278 57.4734 350.067 57.8339 350.977 58.0571C351.904 58.2803 352.917 58.3919 354.016 58.3919C355.355 58.3919 356.454 58.203 357.312 57.8254C358.188 57.4477 358.831 56.924 359.244 56.2545C359.673 55.5849 359.887 54.8295 359.887 53.9883Z" fill="white"/>
</svg>
