<svg width="175" height="38" viewBox="0 0 175 38" fill="none" xmlns="http://www.w3.org/2000/svg">
<path d="M175 1.81818V32.9323L0 38V0L175 1.81818Z" fill="#00C5B4"/>
<path d="M44.5496 12.2378H50.1453C51.239 12.2378 52.1895 12.4006 52.9968 12.7261C53.8041 13.0516 54.4259 13.5334 54.8621 14.1714C55.3048 14.8094 55.5261 15.5972 55.5261 16.5347C55.5261 17.3485 55.3992 18.0288 55.1453 18.5757C54.8914 19.1226 54.5365 19.575 54.0808 19.9331C53.6316 20.2847 53.1075 20.5744 52.5085 20.8022L51.3855 21.437H46.6882L46.6687 18.7905H50.1453C50.5815 18.7905 50.9428 18.7124 51.2292 18.5562C51.5157 18.3999 51.7306 18.1785 51.8738 17.8921C52.0235 17.5991 52.0984 17.2508 52.0984 16.8472C52.0984 16.437 52.0235 16.0854 51.8738 15.7925C51.724 15.4995 51.5027 15.2749 51.2097 15.1187C50.9233 14.9624 50.5684 14.8843 50.1453 14.8843H47.9773V26.4565H44.5496V12.2378ZM52.3328 26.4565L49.1882 20.1675L52.821 20.1479L56.0046 26.3101V26.4565H52.3328ZM67.3816 23.8198V26.4565H59.8035V23.8198H67.3816ZM61.0242 12.2378V26.4565H57.5964V12.2378H61.0242ZM66.405 17.8823V20.4312H59.8035V17.8823H66.405ZM67.4109 12.2378V14.8843H59.8035V12.2378H67.4109ZM76.1121 22.6772C76.1121 22.4559 76.0795 22.2573 76.0144 22.0815C75.9493 21.8993 75.8289 21.73 75.6531 21.5737C75.4773 21.4175 75.2234 21.2612 74.8914 21.105C74.5658 20.9422 74.1361 20.7729 73.6023 20.5972C72.9773 20.3888 72.3751 20.1545 71.7957 19.894C71.2162 19.6271 70.6986 19.3179 70.2429 18.9663C69.7872 18.6082 69.4259 18.1916 69.1589 17.7163C68.892 17.2345 68.7585 16.6746 68.7585 16.0366C68.7585 15.4246 68.8953 14.8745 69.1687 14.3862C69.4421 13.8914 69.823 13.4715 70.3113 13.1265C70.8061 12.7749 71.3855 12.508 72.0496 12.3257C72.7136 12.1369 73.4395 12.0425 74.2273 12.0425C75.269 12.0425 76.1869 12.2248 76.9812 12.5894C77.782 12.9474 78.407 13.4585 78.8562 14.1226C79.3119 14.7801 79.5398 15.5581 79.5398 16.4565H76.1316C76.1316 16.0985 76.0567 15.7827 75.907 15.5093C75.7638 15.2358 75.5457 15.021 75.2527 14.8647C74.9597 14.7085 74.5919 14.6304 74.1492 14.6304C73.7195 14.6304 73.3582 14.6955 73.0652 14.8257C72.7722 14.9559 72.5509 15.1317 72.4011 15.353C72.2514 15.5679 72.1765 15.8055 72.1765 16.0659C72.1765 16.2808 72.2351 16.4761 72.3523 16.6519C72.476 16.8211 72.6485 16.9806 72.8699 17.1304C73.0977 17.2801 73.3712 17.4233 73.6902 17.5601C74.0157 17.6968 74.3803 17.8302 74.7839 17.9604C75.5391 18.2013 76.2097 18.4715 76.7957 18.771C77.3881 19.064 77.8861 19.3993 78.2898 19.7769C78.7 20.1479 79.0092 20.5711 79.2175 21.0464C79.4324 21.5216 79.5398 22.0588 79.5398 22.6577C79.5398 23.2957 79.4161 23.8621 79.1687 24.3569C78.9213 24.8517 78.5665 25.2716 78.1042 25.6167C77.642 25.9552 77.0886 26.2124 76.4441 26.3882C75.7996 26.564 75.0802 26.6519 74.2859 26.6519C73.5567 26.6519 72.8373 26.5607 72.1277 26.3784C71.4246 26.1896 70.7865 25.9032 70.2136 25.519C69.6407 25.1284 69.1817 24.6304 68.8367 24.0249C68.4981 23.4129 68.3289 22.687 68.3289 21.8472H71.7664C71.7664 22.2638 71.8217 22.6154 71.9324 22.9019C72.0431 23.1883 72.2058 23.4194 72.4207 23.5952C72.6355 23.7645 72.8992 23.8882 73.2117 23.9663C73.5242 24.0379 73.8822 24.0737 74.2859 24.0737C74.7221 24.0737 75.0736 24.0119 75.3406 23.8882C75.6075 23.758 75.8028 23.5887 75.9265 23.3804C76.0502 23.1655 76.1121 22.9312 76.1121 22.6772ZM91.0925 23.8198V26.4565H83.5144V23.8198H91.0925ZM84.7351 12.2378V26.4565H81.3074V12.2378H84.7351ZM90.116 17.8823V20.4312H83.5144V17.8823H90.116ZM91.1218 12.2378V14.8843H83.5144V12.2378H91.1218ZM98.5242 15.2261L95.0574 26.4565H91.3757L96.6003 12.2378H98.9343L98.5242 15.2261ZM101.395 26.4565L97.9187 15.2261L97.4695 12.2378H99.8328L105.087 26.4565H101.395ZM101.259 21.1538V23.8003H93.9636V21.1538H101.259ZM106.132 12.2378H111.727C112.821 12.2378 113.772 12.4006 114.579 12.7261C115.386 13.0516 116.008 13.5334 116.444 14.1714C116.887 14.8094 117.108 15.5972 117.108 16.5347C117.108 17.3485 116.981 18.0288 116.727 18.5757C116.473 19.1226 116.119 19.575 115.663 19.9331C115.214 20.2847 114.69 20.5744 114.091 20.8022L112.968 21.437H108.27L108.251 18.7905H111.727C112.163 18.7905 112.525 18.7124 112.811 18.5562C113.098 18.3999 113.313 18.1785 113.456 17.8921C113.606 17.5991 113.68 17.2508 113.68 16.8472C113.68 16.437 113.606 16.0854 113.456 15.7925C113.306 15.4995 113.085 15.2749 112.792 15.1187C112.505 14.9624 112.15 14.8843 111.727 14.8843H109.559V26.4565H106.132V12.2378ZM113.915 26.4565L110.77 20.1675L114.403 20.1479L117.587 26.3101V26.4565H113.915ZM127.264 21.6421H130.682C130.637 22.6317 130.37 23.5041 129.882 24.2593C129.393 25.0145 128.716 25.6037 127.85 26.0269C126.991 26.4435 125.975 26.6519 124.803 26.6519C123.853 26.6519 123.003 26.4924 122.255 26.1733C121.512 25.8543 120.881 25.3953 120.36 24.7964C119.846 24.1974 119.452 23.4715 119.178 22.6187C118.912 21.7658 118.778 20.8055 118.778 19.7378V18.9663C118.778 17.8986 118.918 16.9383 119.198 16.0854C119.484 15.2261 119.888 14.4969 120.409 13.8979C120.936 13.2925 121.568 12.8302 122.303 12.5112C123.039 12.1922 123.856 12.0327 124.755 12.0327C125.992 12.0327 127.037 12.2541 127.889 12.6968C128.742 13.1395 129.403 13.7482 129.872 14.5229C130.341 15.2912 130.617 16.1668 130.702 17.1499H127.284C127.271 16.616 127.18 16.1701 127.01 15.812C126.841 15.4474 126.574 15.174 126.21 14.9917C125.845 14.8094 125.36 14.7183 124.755 14.7183C124.331 14.7183 123.964 14.7964 123.651 14.9526C123.339 15.1089 123.078 15.3563 122.87 15.6948C122.662 16.0334 122.505 16.4728 122.401 17.0132C122.303 17.547 122.255 18.1916 122.255 18.9468V19.7378C122.255 20.493 122.3 21.1375 122.391 21.6714C122.483 22.2052 122.629 22.6414 122.831 22.98C123.033 23.3185 123.293 23.5692 123.612 23.7319C123.938 23.8882 124.335 23.9663 124.803 23.9663C125.324 23.9663 125.764 23.8849 126.122 23.7222C126.48 23.5529 126.757 23.299 126.952 22.9604C127.147 22.6154 127.251 22.1759 127.264 21.6421ZM141.884 17.8823V20.519H134.589V17.8823H141.884ZM135.731 12.2378V26.4565H132.303V12.2378H135.731ZM144.188 12.2378V26.4565H140.77V12.2378H144.188Z" fill="white"/>
</svg>
