<svg width="215" height="62" viewBox="0 0 215 62" fill="none" xmlns="http://www.w3.org/2000/svg">
<path d="M212.82 6.75002H212.64C212.471 6.69429 212.297 6.65742 212.12 6.64003C211.978 6.65611 211.838 6.68281 211.7 6.71999L2.87 1.99225e-05L2.79999 0.0600175C2.71111 0.0352595 2.621 0.0152338 2.53 1.99225e-05C2.19907 -0.0012959 1.87112 0.0625805 1.56488 0.188008C1.25864 0.313436 0.98008 0.497962 0.745148 0.731038C0.510215 0.964114 0.323502 1.24117 0.195648 1.54641C0.067794 1.85165 0.00131062 2.1791 0 2.51003V58.59C0.00131062 58.9209 0.067794 59.2484 0.195648 59.5536C0.323502 59.8588 0.510215 60.1359 0.745148 60.369C0.98008 60.6021 1.25864 60.7866 1.56488 60.912C1.87112 61.0374 2.19907 61.1013 2.53 61.1L212.12 53.86C212.452 53.8613 212.781 53.7971 213.087 53.671C213.394 53.545 213.673 53.3596 213.908 53.1254C214.143 52.8913 214.33 52.6131 214.457 52.3067C214.584 52.0003 214.65 51.6718 214.65 51.34V9.11001C214.646 8.57471 214.469 8.05511 214.144 7.62948C213.819 7.20384 213.365 6.89521 212.85 6.75002" fill="#00C4B3"/>
</svg>
