<svg width="128" height="37" viewBox="0 0 128 37" fill="none" xmlns="http://www.w3.org/2000/svg">
<path d="M128 4.72211V35.4635L0 37V0L128 4.72211Z" fill="#943700"/>
<path d="M31.4648 23.6504L34.4238 12.7812H38.2617L33.4668 27H30.9863L31.4648 23.6504ZM28.7793 12.7812L31.7383 23.6504L32.2363 27H29.7266L24.9609 12.7812H28.7793ZM42.9492 12.7812V27H39.5312V12.7812H42.9492ZM52.6855 23.2207C52.6855 22.9993 52.653 22.8008 52.5879 22.625C52.5228 22.4427 52.4023 22.2734 52.2266 22.1172C52.0508 21.9609 51.7969 21.8047 51.4648 21.6484C51.1393 21.4857 50.7096 21.3164 50.1758 21.1406C49.5508 20.9323 48.9486 20.6979 48.3691 20.4375C47.7897 20.1706 47.2721 19.8613 46.8164 19.5098C46.3607 19.1517 45.9993 18.735 45.7324 18.2598C45.4655 17.778 45.332 17.2181 45.332 16.5801C45.332 15.9681 45.4688 15.418 45.7422 14.9297C46.0156 14.4349 46.3965 14.015 46.8848 13.6699C47.3796 13.3184 47.959 13.0514 48.623 12.8691C49.2871 12.6803 50.013 12.5859 50.8008 12.5859C51.8424 12.5859 52.7604 12.7682 53.5547 13.1328C54.3555 13.4909 54.9805 14.002 55.4297 14.666C55.8854 15.3236 56.1133 16.1016 56.1133 17H52.7051C52.7051 16.6419 52.6302 16.3262 52.4805 16.0527C52.3372 15.7793 52.1191 15.5645 51.8262 15.4082C51.5332 15.252 51.1654 15.1738 50.7227 15.1738C50.293 15.1738 49.9316 15.2389 49.6387 15.3691C49.3457 15.4993 49.1243 15.6751 48.9746 15.8965C48.8249 16.1113 48.75 16.349 48.75 16.6094C48.75 16.8242 48.8086 17.0195 48.9258 17.1953C49.0495 17.3646 49.222 17.5241 49.4434 17.6738C49.6712 17.8236 49.9447 17.9668 50.2637 18.1035C50.5892 18.2402 50.9538 18.3737 51.3574 18.5039C52.1126 18.7448 52.7832 19.015 53.3691 19.3145C53.9616 19.6074 54.4596 19.9427 54.8633 20.3203C55.2734 20.6914 55.5827 21.1146 55.791 21.5898C56.0059 22.0651 56.1133 22.6022 56.1133 23.2012C56.1133 23.8392 55.9896 24.4056 55.7422 24.9004C55.4948 25.3952 55.14 25.8151 54.6777 26.1602C54.2155 26.4987 53.6621 26.7559 53.0176 26.9316C52.373 27.1074 51.6536 27.1953 50.8594 27.1953C50.1302 27.1953 49.4108 27.1042 48.7012 26.9219C47.998 26.7331 47.36 26.4466 46.7871 26.0625C46.2142 25.6719 45.7552 25.1738 45.4102 24.5684C45.0716 23.9564 44.9023 23.2305 44.9023 22.3906H48.3398C48.3398 22.8073 48.3952 23.1589 48.5059 23.4453C48.6165 23.7318 48.7793 23.9629 48.9941 24.1387C49.209 24.3079 49.4727 24.4316 49.7852 24.5098C50.0977 24.5814 50.4557 24.6172 50.8594 24.6172C51.2956 24.6172 51.6471 24.5553 51.9141 24.4316C52.181 24.3014 52.3763 24.1322 52.5 23.9238C52.6237 23.709 52.6855 23.4746 52.6855 23.2207ZM61.5234 12.7812V27H58.1055V12.7812H61.5234ZM75.9668 19.6074V20.1836C75.9668 21.2708 75.8138 22.2474 75.5078 23.1133C75.2083 23.9727 74.7819 24.7083 74.2285 25.3203C73.6751 25.9258 73.0208 26.3913 72.2656 26.7168C71.5104 27.0358 70.6771 27.1953 69.7656 27.1953C68.8477 27.1953 68.0078 27.0358 67.2461 26.7168C66.4909 26.3913 65.8333 25.9258 65.2734 25.3203C64.7201 24.7083 64.2904 23.9727 63.9844 23.1133C63.6849 22.2474 63.5352 21.2708 63.5352 20.1836V19.6074C63.5352 18.5202 63.6849 17.5436 63.9844 16.6777C64.2904 15.8118 64.7168 15.0762 65.2637 14.4707C65.8171 13.8587 66.4714 13.3932 67.2266 13.0742C67.9883 12.7487 68.8281 12.5859 69.7461 12.5859C70.6576 12.5859 71.4909 12.7487 72.2461 13.0742C73.0078 13.3932 73.6654 13.8587 74.2188 14.4707C74.7721 15.0762 75.2018 15.8118 75.5078 16.6777C75.8138 17.5436 75.9668 18.5202 75.9668 19.6074ZM72.4902 20.1836V19.5879C72.4902 18.8848 72.4284 18.2663 72.3047 17.7324C72.1875 17.1921 72.0117 16.7396 71.7773 16.375C71.543 16.0104 71.2533 15.737 70.9082 15.5547C70.5697 15.3659 70.1823 15.2715 69.7461 15.2715C69.2904 15.2715 68.8932 15.3659 68.5547 15.5547C68.2161 15.737 67.9329 16.0104 67.7051 16.375C67.4772 16.7396 67.3047 17.1921 67.1875 17.7324C67.0768 18.2663 67.0215 18.8848 67.0215 19.5879V20.1836C67.0215 20.8802 67.0768 21.4987 67.1875 22.0391C67.3047 22.5729 67.4772 23.0254 67.7051 23.3965C67.9395 23.7676 68.2259 24.0475 68.5645 24.2363C68.9095 24.4251 69.3099 24.5195 69.7656 24.5195C70.2018 24.5195 70.5892 24.4251 70.9277 24.2363C71.2663 24.0475 71.5495 23.7676 71.7773 23.3965C72.0117 23.0254 72.1875 22.5729 72.3047 22.0391C72.4284 21.4987 72.4902 20.8802 72.4902 20.1836ZM89.6191 12.7812V27H86.2012L81.1719 18.1523V27H77.7441V12.7812H81.1719L86.2012 21.6289V12.7812H89.6191Z" fill="white"/>
</svg>
