<svg width="480" height="106" viewBox="0 0 480 106" fill="none" xmlns="http://www.w3.org/2000/svg">
<path d="M479.03 6.45996V93.8899L0.25 105.31V0.0900879L479.03 6.45996Z" fill="#00C4B3"/>
<path d="M82.6018 69.0601L72.1137 30.7037H76.8333L84.8492 61.9432H85.2238L93.3895 30.7037H98.6335L106.799 61.9432H107.174L115.19 30.7037H119.909L109.421 69.0601H104.627L96.1614 38.4948H95.8617L87.3963 69.0601H82.6018ZM125.697 69.0601V30.7037H130.341V47.7843H150.793V30.7037H155.438V69.0601H150.793V51.9046H130.341V69.0601H125.697ZM197.1 49.8819C197.1 53.9273 196.369 57.4233 194.908 60.3699C193.448 63.3166 191.444 65.589 188.896 67.1872C186.349 68.7854 183.44 69.5845 180.169 69.5845C176.898 69.5845 173.988 68.7854 171.441 67.1872C168.894 65.589 166.89 63.3166 165.429 60.3699C163.969 57.4233 163.238 53.9273 163.238 49.8819C163.238 45.8365 163.969 42.3405 165.429 39.3938C166.89 36.4472 168.894 34.1747 171.441 32.5766C173.988 30.9784 176.898 30.1793 180.169 30.1793C183.44 30.1793 186.349 30.9784 188.896 32.5766C191.444 34.1747 193.448 36.4472 194.908 39.3938C196.369 42.3405 197.1 45.8365 197.1 49.8819ZM192.605 49.8819C192.605 46.5607 192.049 43.7576 190.938 41.4727C189.839 39.1878 188.347 37.4585 186.462 36.2848C184.589 35.1112 182.491 34.5243 180.169 34.5243C177.847 34.5243 175.743 35.1112 173.857 36.2848C171.984 37.4585 170.492 39.1878 169.381 41.4727C168.282 43.7576 167.733 46.5607 167.733 49.8819C167.733 53.2031 168.282 56.0062 169.381 58.2911C170.492 60.576 171.984 62.3052 173.857 63.4789C175.743 64.6526 177.847 65.2394 180.169 65.2394C182.491 65.2394 184.589 64.6526 186.462 63.4789C188.347 62.3052 189.839 60.576 190.938 58.2911C192.049 56.0062 192.605 53.2031 192.605 49.8819ZM226.71 69.0601L216.222 30.7037H220.941L228.957 61.9432H229.332L237.497 30.7037H242.741L250.907 61.9432H251.282L259.298 30.7037H264.017L253.529 69.0601H248.735L240.269 38.4948H239.97L231.504 69.0601H226.71ZM269.804 69.0601V30.7037H292.953V34.824H274.449V47.7843H291.754V51.9046H274.449V64.9397H293.253V69.0601H269.804ZM317.731 69.0601H312.862L326.946 30.7037H331.74L345.824 69.0601H340.955L329.493 36.7718H329.193L317.731 69.0601ZM319.529 54.0771H339.157V58.1974H319.529V54.0771ZM351.799 69.0601V30.7037H364.759C367.755 30.7037 370.215 31.2156 372.138 32.2394C374.061 33.2508 375.484 34.643 376.408 36.4159C377.332 38.1889 377.794 40.2054 377.794 42.4653C377.794 44.7252 377.332 46.7292 376.408 48.4772C375.484 50.2252 374.067 51.5987 372.157 52.5975C370.246 53.5839 367.805 54.0771 364.834 54.0771H354.346V49.8819H364.684C366.732 49.8819 368.38 49.5822 369.628 48.9829C370.889 48.3836 371.801 47.5345 372.363 46.4358C372.937 45.3246 373.224 44.0011 373.224 42.4653C373.224 40.9296 372.937 39.5873 372.363 38.4386C371.788 37.29 370.871 36.4035 369.61 35.7792C368.349 35.1424 366.682 34.824 364.609 34.824H356.443V69.0601H351.799ZM369.853 51.8297L379.292 69.0601H373.899L364.609 51.8297H369.853ZM385.534 69.0601V30.7037H408.682V34.824H390.178V47.7843H407.484V51.9046H390.178V64.9397H408.982V69.0601H385.534Z" fill="white"/>
</svg>
